<?xml version="1.0" encoding="UTF-8" standalone="no"?>
<!-- Created with Inkscape (http://www.inkscape.org/) -->

<svg
   xmlns:dc="http://purl.org/dc/elements/1.1/"
   xmlns:cc="http://creativecommons.org/ns#"
   xmlns:rdf="http://www.w3.org/1999/02/22-rdf-syntax-ns#"
   xmlns:svg="http://www.w3.org/2000/svg"
   xmlns="http://www.w3.org/2000/svg"
   xmlns:sodipodi="http://sodipodi.sourceforge.net/DTD/sodipodi-0.dtd"
   xmlns:inkscape="http://www.inkscape.org/namespaces/inkscape"
   width="100mm"
   height="100mm"
   viewBox="0 0 100 100"
   version="1.1"
   id="svg87"
   inkscape:version="0.92.3 (2405546, 2018-03-11)"
   sodipodi:docname="logo-design.svg">
  <defs
     id="defs81">
    <inkscape:path-effect
       effect="sketch"
       id="path-effect885"
       is_visible="true"
       nbiter_approxstrokes="3"
       strokelength="300"
       strokelength_rdm="0.3;1"
       strokeoverlap="0.3"
       strokeoverlap_rdm="0.2;1"
       ends_tolerance="0.1;1"
       parallel_offset="5;1"
       tremble_size="5;1"
       tremble_frequency="1"
       nbtangents="5"
       tgt_places_rdmness="1;1"
       tgtscale="10"
       tgtlength="100"
       tgtlength_rdm="0.3;1" />
    <inkscape:path-effect
       effect="knot"
       id="path-effect3778"
       is_visible="true"
       interruption_width="2"
       prop_to_stroke_width="true"
       add_stroke_width="true"
       add_other_stroke_width="true"
       switcher_size="15"
       crossing_points_vector="" />
    <inkscape:path-effect
       effect="sketch"
       id="path-effect5888"
       is_visible="true"
       nbiter_approxstrokes="5"
       strokelength="150"
       strokelength_rdm="1;1"
       strokeoverlap="0"
       strokeoverlap_rdm="0;1"
       ends_tolerance="0.1;1"
       parallel_offset="5;1"
       tremble_size="1;1"
       tremble_frequency="1"
       nbtangents="10"
       tgt_places_rdmness="0.2;1"
       tgtscale="0"
       tgtlength="99"
       tgtlength_rdm="0;1" />
  </defs>
  <sodipodi:namedview
     id="base"
     pagecolor="#ffffff"
     bordercolor="#666666"
     borderopacity="1.0"
     inkscape:pageopacity="0.0"
     inkscape:pageshadow="2"
     inkscape:zoom="0.98994949"
     inkscape:cx="250.39091"
     inkscape:cy="161.59184"
     inkscape:document-units="mm"
     inkscape:current-layer="layer1"
     showgrid="false"
     inkscape:window-width="1366"
     inkscape:window-height="712"
     inkscape:window-x="0"
     inkscape:window-y="0"
     inkscape:window-maximized="1"
     showguides="true"
     inkscape:guide-bbox="true"
     inkscape:snap-nodes="true"
     inkscape:snap-global="false" />
  <metadata
     id="metadata84">
    <rdf:RDF>
      <cc:Work
         rdf:about="">
        <dc:format>image/svg+xml</dc:format>
        <dc:type
           rdf:resource="http://purl.org/dc/dcmitype/StillImage" />
        <dc:title></dc:title>
      </cc:Work>
    </rdf:RDF>
  </metadata>
  <g
     inkscape:label="Layer 1"
     inkscape:groupmode="layer"
     id="layer1"
     transform="translate(0,-197)">
    <path
       style="fill:none;stroke:#000000;stroke-width:1.74251509;stroke-linecap:butt;stroke-linejoin:miter;stroke-miterlimit:4;stroke-dasharray:none;stroke-opacity:1"
       d="m 63.034686,267.11006 c 0.04678,-0.16514 0.09801,-0.32899 0.153878,-0.49144 1.300753,-3.78231 3.608768,-6.19829 5.601959,-7.67478 1.991748,-1.47542 3.666259,-2.00954 3.682314,-2.01464 7.7e-5,-3e-5 1.17e-4,-4e-5 1.18e-4,-4e-5 0,0 -1.2e-5,3e-5 -3.8e-5,8e-5 -0.0062,0.0141 -0.860349,1.95697 -1.011111,4.42978 -0.07538,1.23643 0.02509,2.60669 0.497097,3.93326 0.472034,1.32664 1.316036,2.61076 2.729733,3.67363 3.400693,2.55674 7.231876,2.56582 10.444793,1.267 3.211204,-1.29812 5.796798,-3.90076 6.688965,-6.55614 2.365041,-7.03902 -1.256916,-13.58044 -6.926887,-15.26523 -2.514526,-0.74719 -5.022228,-0.76154 -7.422294,-0.301 -2.400181,0.46057 -4.693347,1.39617 -6.779683,2.54957 -4.172272,2.30659 -7.51928,5.48546 -9.235634,7.47644 -5.730022,6.76926 -8.95437,11.32215 -10.838404,15.03556 -1.883138,3.71164 -2.422386,6.57564 -2.791736,9.96628 -0.36836,3.38151 0.74698,6.25419 1.954692,8.28263 0.604011,1.01448 1.231602,1.81855 1.709528,2.3702 0.238987,0.27586 0.4406,0.48866 0.583229,0.63319 0.07132,0.0723 0.127884,0.12746 0.167008,0.16494 0.01956,0.0187 0.03476,0.0331 0.04526,0.0428 0.0105,0.01 0.0163,0.0151 0.01707,0.0158 5.8e-5,6e-5 8.7e-5,8e-5 8.6e-5,8e-5 0,0 2.8e-5,-2e-5 8.5e-5,-6e-5 8.16e-4,-6.4e-4 0.0074,-0.006 0.0195,-0.0154 0.01206,-0.01 0.02956,-0.0237 0.05214,-0.0422 0.04515,-0.037 0.110602,-0.0918 0.193433,-0.1639 0.16566,-0.14426 0.400854,-0.35807 0.682191,-0.63876 0.195656,-0.19522 0.413637,-0.42278 0.646069,-0.68181 m 9.837957,-41.49181 c 0.946238,-1.2283 1.979311,-2.17847 2.939036,-2.90041 1.946488,-1.46422 3.593672,-1.99137 3.60873,-1.99617 7.6e-5,-2e-5 1.14e-4,-4e-5 1.14e-4,-4e-5 0,0 -1.4e-5,3e-5 -4.1e-5,9e-5 -0.0071,0.0156 -0.896437,1.96487 -1.085597,4.44943 -0.09456,1.24202 -0.01408,2.61709 0.438398,3.94966 0.452431,1.33243 1.276747,2.62207 2.668909,3.69177 3.348822,2.57311 7.149003,2.59289 10.330556,1.30652 3.181314,-1.28627 5.744749,-3.87835 6.621511,-6.52504 2.324658,-7.01737 -1.30501,-13.54215 -6.976768,-15.21233 -2.51431,-0.74041 -5.018763,-0.7487 -7.413499,-0.28221 -2.394851,0.46651 -4.679856,1.40779 -6.756233,2.56667 -4.153749,2.31831 -7.468867,5.5051 -9.166842,7.50247 -5.658808,6.77986 -8.830185,11.3589 -10.661892,15.07245 -1.834235,3.71868 -2.336714,6.58969 -2.658597,9.98587 -0.321234,3.38928 0.837203,6.26432 2.082963,8.29875 0.622616,1.01678 1.26644,1.82254 1.756353,2.37566 0.244938,0.27654 0.45136,0.48989 0.597336,0.6348 0.07299,0.0724 0.130861,0.1278 0.17088,0.16538 0.02001,0.0188 0.03555,0.0331 0.04629,0.043 0.01074,0.01 0.01667,0.0151 0.01745,0.0158 5.9e-5,6e-5 9e-5,8e-5 9e-5,8e-5 1e-6,0 3.1e-5,-2e-5 8.9e-5,-6e-5 8.33e-4,-6.3e-4 0.0076,-0.006 0.01991,-0.0154 0.01232,-0.01 0.03019,-0.0236 0.05325,-0.0421 0.04612,-0.0369 0.112987,-0.0915 0.19765,-0.16343 0.169332,-0.14385 0.409802,-0.35704 0.69784,-0.637 0.576124,-0.55997 1.342187,-1.38671 2.109773,-2.45961 1.53586,-2.14676 3.074272,-5.27416 3.116405,-9.21776 0.295852,-3.92837 -0.537805,-7.42373 -1.612404,-10.87472 m 0.814986,5.92571 c -0.199857,-1.65885 -0.129781,-3.299 0.350363,-4.81625 1.189869,-3.75995 3.422985,-6.16641 5.355162,-7.63193 1.933054,-1.46618 3.571604,-1.99583 3.586378,-2.00059 7.5e-5,-2e-5 1.13e-4,-3e-5 1.12e-4,-3e-5 -10e-7,0 -1.5e-5,3e-5 -4.2e-5,8e-5 -0.0074,0.016 -0.907606,1.96172 -1.109514,4.44212 -0.100921,1.23979 -0.02725,2.61184 0.418331,3.94122 0.445483,1.3291 1.262667,2.61498 2.646549,3.67961 3.329207,2.56115 7.11467,2.56837 10.28115,1.26771 3.166395,-1.30063 5.716164,-3.90913 6.581748,-6.57061 2.295244,-7.05727 -1.353963,-13.6177 -7.047128,-15.33274 -2.523462,-0.7602 -5.036671,-0.78809 -7.439645,-0.3423 -2.402958,0.44579 -4.696666,1.36548 -6.780718,2.50201 -4.168383,2.27321 -7.500369,5.41488 -9.20568,7.38279 -5.688606,6.68649 -8.8744,11.19003 -10.720793,14.85292 -1.847329,3.66474 -2.359015,6.49715 -2.691908,9.84485 -0.3323,3.34169 0.816961,6.17347 2.054514,8.17135 0.618714,0.99884 1.259037,1.78873 1.746515,2.33049 0.243705,0.27085 0.449126,0.47958 0.594414,0.6213 0.07264,0.0709 0.130248,0.12496 0.170082,0.16169 0.01992,0.0184 0.03539,0.0324 0.04608,0.042 0.01069,0.01 0.0166,0.0148 0.01737,0.0155 5.9e-5,6e-5 8.9e-5,8e-5 8.9e-5,8e-5 0,0 3e-5,-2e-5 8.8e-5,-7e-5 8.29e-4,-6.5e-4 0.0076,-0.006 0.01982,-0.0157 0.01226,-0.01 0.03006,-0.0242 0.05302,-0.0431 0.04592,-0.0379 0.112498,-0.0938 0.196782,-0.16745 0.168568,-0.14733 0.407977,-0.36559 0.694636,-0.65188 0.573309,-0.57258 1.335707,-1.41739 2.098652,-2.51157 0.448905,-0.6438 0.898031,-1.37398 1.309043,-2.186 m -8.33886,-52.03611 c -0.194229,-1.97994 -0.185357,-4.0468 0.09258,-6.20755 0.786906,-6.1176 3.94115,-10.72704 6.914406,-13.81395 2.972325,-3.08594 5.751243,-4.63791 5.767875,-4.64718 3.8e-5,-2e-5 5.8e-5,-3e-5 5.8e-5,-3e-5 10e-7,0 2e-5,1e-5 5.8e-5,3e-5 0.0144,0.009 2.692206,1.74404 5.404589,5.17421 2.71358,3.43169 5.458138,8.55452 5.628856,15.36049 0.170868,6.81212 -1.750049,12.08796 -4.400745,16.56778 -2.65096,4.48026 -6.037154,8.17233 -8.808164,11.81119 -1.384603,1.81825 -2.982159,4.35091 -4.599943,7.12597 -1.617309,2.77424 -3.257198,5.79491 -4.72322,8.58561 -1.46626,2.79116 -2.761396,5.35762 -3.689791,7.22606 -0.464426,0.93468 -0.837213,1.69495 -1.094546,2.22293 -0.128654,0.26396 -0.228338,0.46963 -0.296146,0.60991 -0.0084,0.0173 -0.069,0.14303 -0.07735,0.16031 -0.0021,0.004 -0.01787,0.0372 -0.02001,0.0416 -0.0021,0.004 -0.005,0.0105 -0.0072,0.015 -1.2e-5,2e-5 -1.8e-5,3e-5 -1.7e-5,3e-5 0,0 10e-6,-10e-6 3e-5,-4e-5 2.87e-4,-4.3e-4 0.0026,-0.004 0.0069,-0.0105 0.0043,-0.007 0.01058,-0.0161 0.01875,-0.0287 0.01632,-0.0251 0.04019,-0.062 0.07094,-0.11032 0.06149,-0.0966 0.150496,-0.2386 0.261702,-0.42202 0.222417,-0.36684 0.533636,-0.89929 0.891171,-1.56523 0.715143,-1.33202 1.615275,-3.19756 2.361032,-5.34024 0.745743,-2.14265 1.336806,-4.5616 1.434267,-6.99981 0.09745,-2.43809 -0.298732,-4.8949 -1.526635,-7.11161 -1.415108,-2.55466 -3.090374,-3.96695 -4.415442,-4.74061 -1.325239,-0.77376 -2.30011,-0.90881 -2.316575,-0.91105 -1.4e-4,-2e-5 -2.1e-4,-3e-5 -2.1e-4,-3e-5 0,0 1.2e-5,2e-5 3.4e-5,7e-5 4.56e-4,9.4e-4 0.0056,0.0115 0.01475,0.0312 0.0092,0.0197 0.0224,0.0485 0.03907,0.0859 0.03334,0.0749 0.08044,0.18416 0.13644,0.32384 0.111995,0.27937 0.259541,0.68023 0.403595,1.17002 0.288127,0.97967 0.562199,2.31482 0.510135,3.74549 -0.05207,1.43079 -0.430272,2.95648 -1.446027,4.31869 -1.015728,1.36218 -2.668701,2.56053 -5.269364,3.33759 -5.164907,1.54327 -10.538284,-0.84754 -12.646226,-6.19942 -1.224649,-3.10931 -1.288213,-6.42881 -0.141947,-9.24259 0.862875,-2.11813 2.411521,-3.95003 4.667232,-5.18875 m 20.375066,-6.35779 c -1.095235,-1.94684 -2.186412,-3.99248 -3.145024,-6.15253 -2.168437,-4.88617 -3.657521,-10.35557 -2.980701,-16.58613 0.675831,-6.22145 3.763814,-10.92387 6.685754,-14.07367 2.921699,-3.14953 5.681284,-4.75019 5.694784,-4.75802 3.8e-5,-2e-5 5.7e-5,-3e-5 5.7e-5,-3e-5 0,0 1.9e-5,1e-5 5.6e-5,3e-5 0.01525,0.01 2.663554,1.69754 5.352414,5.06966 2.689318,3.37269 5.412427,8.42218 5.584681,15.14813 0.172435,6.73326 -1.725909,11.94432 -4.347103,16.36977 -2.620056,4.42353 -5.964934,8.06553 -8.688234,11.65783 -1.361812,1.79636 -2.924627,4.29738 -4.50226,7.04235 -1.578752,2.74691 -3.166248,5.72721 -4.586066,8.49199 -1.419802,2.76475 -2.66364,5.29775 -3.557541,7.15009 -0.446178,0.92457 -0.804299,1.67776 -1.050933,2.19989 -0.123323,0.26108 -0.219035,0.46494 -0.283955,0.60361 -0.0081,0.0172 -0.06607,0.14143 -0.07414,0.15866 -0.0021,0.004 -0.01712,0.0367 -0.01917,0.0412 -0.002,0.004 -0.0049,0.0105 -0.0069,0.0148 -1.1e-5,3e-5 -1.6e-5,4e-5 -1.5e-5,4e-5 0,0 1.1e-5,-1e-5 3.2e-5,-5e-5 2.97e-4,-4.3e-4 0.0027,-0.004 0.0072,-0.0106 0.0045,-0.007 0.01093,-0.0163 0.01937,-0.029 0.01687,-0.0254 0.04153,-0.0627 0.07332,-0.11154 0.06358,-0.0977 0.15563,-0.24122 0.270776,-0.42664 0.230301,-0.37087 0.55285,-0.90899 0.924584,-1.582 0.743468,-1.34601 1.683323,-3.23092 2.474684,-5.39464 0.791547,-2.16423 1.433827,-4.60538 1.584283,-7.0669 0.150502,-2.46227 -0.191461,-4.93945 -1.36096,-7.18138 -1.346738,-2.58169 -2.972301,-4.01584 -4.258738,-4.80383 -1.287096,-0.7884 -2.2395,-0.93326 -2.254645,-0.93552 -1.37e-4,-2e-5 -2.03e-4,-3e-5 -1.99e-4,-3e-5 10e-7,0 1.4e-5,2e-5 3.7e-5,6e-5 4.82e-4,9.3e-4 0.0059,0.0114 0.01559,0.0309 0.0097,0.0195 0.02372,0.048 0.04141,0.085 0.03537,0.0741 0.08543,0.18219 0.145177,0.32041 0.119509,0.27647 0.277663,0.67306 0.43456,1.1579 0.313965,0.97021 0.621932,2.29088 0.606811,3.70792 -0.01512,1.41714 -0.353592,2.92629 -1.32469,4.27202 -0.970426,1.34479 -2.571123,2.52323 -5.096721,3.27166 -5.012262,1.48535 -10.261559,-0.95317 -12.19645,-6.37181 -1.1239849,-3.14774 -1.0924436,-6.50582 0.148215,-9.35665 1.240988,-2.85158 3.691647,-5.19813 7.428448,-6.33222 3.468097,-1.0525 6.689496,-0.93621 9.58388,-0.17257 2.892874,0.76323 5.462583,2.17488 7.604649,3.71504 0.120397,0.0866 0.23945,0.17355 0.35714,0.26084 m 4.675862,-3.77609 c -1.500353,-4.04776 -2.373268,-8.50253 -1.845193,-13.45606 0.655154,-6.14556 3.724923,-10.80036 6.631303,-13.91839 2.907426,-3.11914 5.653746,-4.70382 5.66803,-4.71205 3.8e-5,-3e-5 5.7e-5,-4e-5 5.7e-5,-4e-5 -1e-6,0 1.8e-5,2e-5 5.5e-5,4e-5 0.01508,0.01 2.652228,1.71447 5.324854,5.09907 2.672453,3.38439 5.375403,8.44311 5.520509,15.15642 0.145258,6.72059 -1.775136,11.90564 -4.418811,16.29834 -2.643301,4.39208 -6.007867,7.98875 -8.752881,11.53686 -1.371647,1.77294 -2.948914,4.2434 -4.540989,6.94926 -1.592594,2.70675 -3.198304,5.64603 -4.632199,8.36438 -1.434038,2.71862 -2.693592,5.21122 -3.596909,7.02883 -0.451386,0.90826 -0.813548,1.64742 -1.06317,2.16015 -0.124813,0.25637 -0.221593,0.45633 -0.287322,0.59252 -0.0081,0.0169 -0.06689,0.13888 -0.07502,0.15573 -0.0021,0.004 -0.01732,0.0361 -0.0194,0.0404 -0.0021,0.004 -0.0049,0.0102 -0.007,0.0145 -1.1e-5,3e-5 -1.7e-5,4e-5 -1.6e-5,4e-5 0,0 1.1e-5,-2e-5 3.1e-5,-5e-5 2.95e-4,-4.5e-4 0.0027,-0.004 0.0071,-0.0108 0.0044,-0.007 0.01084,-0.0166 0.0192,-0.0296 0.01672,-0.0259 0.04116,-0.0639 0.07267,-0.11371 0.06301,-0.0996 0.154227,-0.24591 0.268295,-0.4349 0.22814,-0.37798 0.547633,-0.92648 0.915548,-1.61233 0.735829,-1.37169 1.665284,-3.29265 2.444977,-5.49755 0.779838,-2.20532 1.409416,-4.69328 1.547016,-7.2022 0.137673,-2.51025 -0.217179,-5.03577 -1.400202,-7.33038 -1.362174,-2.64209 -2.999758,-4.12289 -4.294472,-4.94454 -1.294779,-0.82168 -2.253903,-0.98858 -2.268471,-0.99108 -1.37e-4,-3e-5 -2.04e-4,-4e-5 -2.01e-4,-5e-5 10e-7,0 1.3e-5,2e-5 3.7e-5,7e-5 4.76e-4,9.1e-4 0.0058,0.0111 0.01541,0.0301 0.0096,0.019 0.02343,0.0468 0.04089,0.0829 0.03492,0.0722 0.08432,0.17771 0.14324,0.31256 0.117849,0.26976 0.273645,0.65679 0.427715,1.13012 0.308261,0.94704 0.608809,2.23728 0.585652,3.6212 -0.02314,1.38321 -0.370202,2.85828 -1.350849,4.16315 -0.979874,1.30385 -2.59218,2.43597 -5.133318,3.11671 -5.043286,1.35104 -10.320202,-1.20457 -12.289415,-6.77638 -1.144612,-3.23866 -1.132156,-6.68222 0.08933,-9.61861 1.22232,-2.93839 3.65298,-5.36836 7.366078,-6.61266 3.444408,-1.15421 6.648475,-1.12679 9.522371,-0.45071 2.872656,0.67579 5.425512,2.00285 7.548964,3.46285 1.878831,1.29181 3.428775,2.69285 4.571632,3.85131 M 73.627674,217.25925 37.453363,268.32081 M 5.7846997,244.12763 35.510514,237.96815 m -0.230634,18.13082 -12.837918,10.30492 m 66.221287,-1.63753 0.719879,-25.07088 m -55.630134,-4.52257 11.92943,-35.85883"
       id="path3819"
       inkscape:connector-curvature="0"
       sodipodi:nodetypes="cscssscsccccscsscscsssc"
       inkscape:path-effect="#path-effect885"
       inkscape:original-d="m 65.692331,277.3746 c 0,0 -8.120509,-10.93593 -5.558225,-18.64083 2.492518,-7.4951 9.10596,-9.55124 9.10596,-9.55124 0,0 -3.523566,7.8341 2.080314,12.14649 6.725507,5.17544 15.236455,0.12008 16.993526,-5.16354 2.329359,-7.00442 -1.306818,-13.52463 -6.988049,-15.19245 -10.076307,-2.95814 -20.007147,5.78522 -23.427928,9.7703 -11.413826,13.54192 -12.811441,18.21695 -13.510245,24.98791 -0.698812,6.77095 4.560156,11.48725 4.560156,11.48725 0,0 6.05095,-4.65888 6.05095,-12.59719 0.36734,-5.71237 -1.624745,-10.51035 -3.302192,-15.5951 m -3.209252,-7.76383 c -3.959905,-7.70486 -11.180899,-17.04415 -9.783291,-29.41863 1.397619,-12.37457 12.392163,-18.67849 12.392163,-18.67849 0,0 10.57526,6.81761 10.808202,20.35955 0.232931,13.54187 -7.826625,20.96665 -13.417074,28.20458 -5.59046,7.23791 -14.631959,25.86793 -14.631959,25.86793 0,0 8.394279,-12.75644 3.45106,-21.6653 -2.857517,-5.14992 -6.755119,-5.68076 -6.755119,-5.68076 0,0 4.793489,9.8827 -5.650873,12.95973 -5.177951,1.5255 -10.562037,-0.88065 -12.684834,-6.25285 -2.4668151,-6.24287 -0.287796,-13.32365 6.92187,-15.52354 13.393804,-4.08669 23.065965,10.51203 23.065965,10.51203" />
  </g>
</svg>
