<?xml version="1.0" encoding="UTF-8" standalone="no"?>
<!-- Created with Inkscape (http://www.inkscape.org/) -->

<svg
   xmlns:dc="http://purl.org/dc/elements/1.1/"
   xmlns:cc="http://creativecommons.org/ns#"
   xmlns:rdf="http://www.w3.org/1999/02/22-rdf-syntax-ns#"
   xmlns:svg="http://www.w3.org/2000/svg"
   xmlns="http://www.w3.org/2000/svg"
   xmlns:sodipodi="http://sodipodi.sourceforge.net/DTD/sodipodi-0.dtd"
   xmlns:inkscape="http://www.inkscape.org/namespaces/inkscape"
   width="100mm"
   height="100mm"
   viewBox="0 0 100 100"
   version="1.1"
   id="svg87"
   inkscape:version="0.92.3 (2405546, 2018-03-11)"
   sodipodi:docname="logo-tech.svg">
  <defs
     id="defs81">
    <inkscape:path-effect
       effect="show_handles"
       id="path-effect827"
       is_visible="true"
       nodes="true"
       handles="true"
       original_path="true"
       scale_nodes_and_handles="10" />
    <inkscape:path-effect
       effect="show_handles"
       id="path-effect815"
       is_visible="true"
       nodes="true"
       handles="true"
       original_path="true"
       scale_nodes_and_handles="10" />
    <inkscape:path-effect
       effect="knot"
       id="path-effect3778"
       is_visible="true"
       interruption_width="2"
       prop_to_stroke_width="true"
       add_stroke_width="true"
       add_other_stroke_width="true"
       switcher_size="15"
       crossing_points_vector="" />
    <inkscape:path-effect
       effect="sketch"
       id="path-effect5888"
       is_visible="true"
       nbiter_approxstrokes="5"
       strokelength="150"
       strokelength_rdm="1;1"
       strokeoverlap="0"
       strokeoverlap_rdm="0;1"
       ends_tolerance="0.1;1"
       parallel_offset="5;1"
       tremble_size="1;1"
       tremble_frequency="1"
       nbtangents="10"
       tgt_places_rdmness="0.2;1"
       tgtscale="0"
       tgtlength="99"
       tgtlength_rdm="0;1" />
  </defs>
  <sodipodi:namedview
     id="base"
     pagecolor="#ffffff"
     bordercolor="#666666"
     borderopacity="1.0"
     inkscape:pageopacity="0.0"
     inkscape:pageshadow="2"
     inkscape:zoom="0.7"
     inkscape:cx="-24.057817"
     inkscape:cy="131.21613"
     inkscape:document-units="mm"
     inkscape:current-layer="layer1"
     showgrid="false"
     inkscape:window-width="1366"
     inkscape:window-height="712"
     inkscape:window-x="0"
     inkscape:window-y="0"
     inkscape:window-maximized="1"
     showguides="true"
     inkscape:guide-bbox="true"
     inkscape:snap-nodes="true"
     inkscape:snap-global="false" />
  <metadata
     id="metadata84">
    <rdf:RDF>
      <cc:Work
         rdf:about="">
        <dc:format>image/svg+xml</dc:format>
        <dc:type
           rdf:resource="http://purl.org/dc/dcmitype/StillImage" />
        <dc:title />
      </cc:Work>
    </rdf:RDF>
  </metadata>
  <g
     inkscape:label="Layer 1"
     inkscape:groupmode="layer"
     id="layer1"
     transform="translate(0,-197)">
    <path
       style="fill:none;stroke:#000000;stroke-width:0.39397401;stroke-linecap:butt;stroke-linejoin:bevel;stroke-miterlimit:4;stroke-dasharray:none;stroke-opacity:1"
       d="m 65.013778,280.60646 c 0,0 -5.344583,-8.76564 -2.59849,-17.75729 2.636617,-8.63318 9.825827,-11.28955 9.825827,-11.28955 0,0 -4.035349,8.95092 2.382456,13.87803 7.702357,5.91328 17.449469,0.13723 19.461752,-5.89962 2.667678,-8.003 -1.496633,-15.45265 -8.003032,-17.35829 -11.539825,-3.37984 -22.913067,6.61 -26.830698,11.16315 -13.071623,15.47248 -14.672232,20.81396 -15.472536,28.55019 -0.800306,7.73624 5.222498,13.12493 5.222498,13.12493 0,0 6.929811,-5.32304 6.929811,-14.39311 0.420696,-6.52672 -1.860723,-12.00872 -3.781818,-17.81825 M 48.47417,253.93592 C 43.939113,245.13262 35.669312,234.46196 37.269918,220.32333 38.870529,206.18469 51.46197,198.982 51.46197,198.982 c 0,0 12.111263,7.78959 12.378029,23.26204 0.266768,15.47248 -8.865509,24.03236 -15.365829,32.22542 -9.216547,11.61662 -12.937644,26.18633 -12.937644,26.18633 0,0 4.595322,-12.41541 0.132786,-21.38453 -2.999195,-6.02799 -7.736263,-6.49067 -7.736263,-6.49067 0,0 5.48972,11.29161 -6.471628,14.80733 -5.930019,1.74297 -12.0961166,-1.00618 -14.5272326,-7.14427 -2.8251106,-7.13286 -0.3295992,-15.2231 7.9272316,-17.73652 15.339178,-4.66933 26.416165,12.01065 26.416165,12.01065 m 23.736193,24.04597 1.842702,1.84271 -1.842702,1.8427 -1.842702,-1.8427 z m -4.432492,-6.92293 a 0.9120908,0.9120908 0 0 1 -0.912091,0.91209 0.9120908,0.9120908 0 0 1 -0.912092,-0.91209 0.9120908,0.9120908 0 0 1 0.912092,-0.91209 0.9120908,0.9120908 0 0 1 0.912091,0.91209 z m 1.834002,-8.99165 -2.479684,8.11933 m 1.176697,-9.42232 h 2.605974 v 2.60598 h -2.605974 z m 4.851695,-7.33019 a 0.9120908,0.9120908 0 0 1 -0.912091,0.91209 0.9120908,0.9120908 0 0 1 -0.912091,-0.91209 0.9120908,0.9120908 0 0 1 0.912091,-0.91209 0.9120908,0.9120908 0 0 1 0.912091,0.91209 z m -3.548708,8.63318 2.370207,-7.76086 m 7.45562,-5.3714 1.842702,1.84271 -1.842702,1.8427 -1.842702,-1.8427 z m -3.123258,10.79363 a 0.9120908,0.9120908 0 0 1 -0.912091,0.91209 0.9120908,0.9120908 0 0 1 -0.912091,-0.91209 0.9120908,0.9120908 0 0 1 0.912091,-0.91209 0.9120908,0.9120908 0 0 1 0.912091,0.91209 z m 5.505714,4.92711 -5.694334,-4.37168 m 4.391347,3.06869 h 2.605974 v 2.60598 h -2.605974 z m 9.917435,7.21627 a 0.9120908,0.9120908 0 0 1 -0.912091,0.91209 0.9120908,0.9120908 0 0 1 -0.912091,-0.91209 0.9120908,0.9120908 0 0 1 0.912091,-0.91209 0.9120908,0.9120908 0 0 1 0.912091,0.91209 z m -8.614448,-5.91328 6.978886,5.35786 m 11.382674,-5.22063 a 0.9120908,0.9120908 0 0 1 -0.912091,0.91209 0.9120908,0.9120908 0 0 1 -0.912091,-0.91209 0.9120908,0.9120908 0 0 1 0.912091,-0.91209 0.9120908,0.9120908 0 0 1 0.912091,0.91209 z m 1.100192,-6.03685 -1.723855,5.17157 m 0.420868,-6.47456 h 2.605975 v 2.60598 h -2.605975 z m 4.882756,-6.70001 a 0.9120908,0.9120908 0 0 1 -0.912091,0.91209 0.9120908,0.9120908 0 0 1 -0.912091,-0.91209 0.9120908,0.9120908 0 0 1 0.912091,-0.91209 0.9120908,0.9120908 0 0 1 0.912091,0.91209 z m -3.579769,8.003 2.379249,-7.13772 m -2.963791,-8.31493 a 0.9120908,0.9120908 0 0 1 -0.912091,0.91209 0.9120908,0.9120908 0 0 1 -0.912091,-0.91209 0.9120908,0.9120908 0 0 1 0.912091,-0.91209 0.9120908,0.9120908 0 0 1 0.912091,0.91209 z m -7.41849,-1.90564 5.631079,1.64927 m -6.934066,-2.95226 h 2.605974 v 2.60598 h -2.605974 z m -9.324747,-2.07685 a 0.9120908,0.9120908 0 0 1 -0.912091,0.91208 0.9120908,0.9120908 0 0 1 -0.912092,-0.91208 0.9120908,0.9120908 0 0 1 0.912092,-0.91209 0.9120908,0.9120908 0 0 1 0.912091,0.91209 z m 10.627734,3.37984 -10.664506,-3.12348 m -11.33647,9.73348 a 0.9120908,0.9120908 0 0 1 -0.912091,0.91209 0.9120908,0.9120908 0 0 1 -0.912091,-0.91209 0.9120908,0.9120908 0 0 1 0.912091,-0.91209 0.9120908,0.9120908 0 0 1 0.912091,0.91209 z m -4.829722,4.55315 3.322745,-3.86176 m -4.625732,2.55877 h 2.605974 v 2.60598 h -2.605974 z m -10.856545,16.77547 a 0.9120908,0.9120908 0 0 1 -0.912091,0.91209 0.9120908,0.9120908 0 0 1 -0.912091,-0.91209 0.9120908,0.9120908 0 0 1 0.912091,-0.91209 0.9120908,0.9120908 0 0 1 0.912091,0.91209 z m 12.159532,-15.47248 -12.483002,14.77574 m -1.277139,6.03822 a 0.9120908,0.9120908 0 0 1 -0.912091,0.91208 0.9120908,0.9120908 0 0 1 -0.912091,-0.91208 0.9120908,0.9120908 0 0 1 0.912091,-0.91209 0.9120908,0.9120908 0 0 1 0.912091,0.91209 z m -1.712395,7.73623 0.706451,-6.82898 m -2.009438,5.52599 h 2.605974 v 2.60598 H 42.47607 Z m 1.414772,9.03923 a 0.9120908,0.9120908 0 0 1 -0.912091,0.91209 0.9120908,0.9120908 0 0 1 -0.912091,-0.91209 0.9120908,0.9120908 0 0 1 0.912091,-0.91209 0.9120908,0.9120908 0 0 1 0.912091,0.91209 z m -0.111785,-7.73624 -0.706452,6.82898 m 5.92895,4.45324 1.842702,1.84271 -1.842702,1.8427 -1.842702,-1.8427 z m 7.841902,-3.48033 a 0.9120908,0.9120908 0 0 1 -0.912091,0.91209 0.9120908,0.9120908 0 0 1 -0.912091,-0.91209 0.9120908,0.9120908 0 0 1 0.912091,-0.91209 0.9120908,0.9120908 0 0 1 0.912091,0.91209 z m -0.912091,-9.07007 v 8.15798 m 0,-10.00068 1.842702,1.8427 -1.842702,1.84271 -1.842702,-1.84271 z m 1.332787,-4.68402 a 0.9120908,0.9120908 0 0 1 -0.912091,0.91209 0.9120908,0.9120908 0 0 1 -0.912092,-0.91209 0.9120908,0.9120908 0 0 1 0.912092,-0.91209 0.9120908,0.9120908 0 0 1 0.912091,0.91209 z m -1.332787,6.52672 0.362026,-5.61652 m -1.310658,-6.3922 a 0.9120908,0.9120908 0 0 1 -0.912091,0.91209 0.9120908,0.9120908 0 0 1 -0.912091,-0.91209 0.9120908,0.9120908 0 0 1 0.912091,-0.91209 0.9120908,0.9120908 0 0 1 0.912091,0.91209 z m -2.833186,-5.80953 1.634735,4.94356 m -1.634735,-6.78626 1.842702,1.8427 -1.842702,1.84271 -1.842702,-1.84271 z m -3.675378,-8.87073 1.842702,1.8427 -1.842702,1.84271 -1.842702,-1.84271 z m -3.622966,-6.9606 a 0.9120908,0.9120908 0 0 1 -0.912091,0.91209 0.9120908,0.9120908 0 0 1 -0.912091,-0.91209 0.9120908,0.9120908 0 0 1 0.912091,-0.91209 0.9120908,0.9120908 0 0 1 0.912091,0.91209 z m 3.622966,8.8033 -4.117357,-7.99247 m -7.77541,-11.48149 a 0.9120908,0.9120908 0 0 1 -0.912091,0.91209 0.9120908,0.9120908 0 0 1 -0.912091,-0.91209 0.9120908,0.9120908 0 0 1 0.912091,-0.91209 0.9120908,0.9120908 0 0 1 0.912091,0.91209 z m 0.688515,-14.13863 -1.498005,13.23233 m 0.195018,-14.53532 h 2.605974 v 2.60598 h -2.605974 z m 3.815689,-12.83565 a 0.9120908,0.9120908 0 0 1 -0.912091,0.91209 0.9120908,0.9120908 0 0 1 -0.912091,-0.91209 0.9120908,0.9120908 0 0 1 0.912091,-0.91209 0.9120908,0.9120908 0 0 1 0.912091,0.91209 z m -2.512702,14.13864 1.49801,-13.23234 m 12.694042,-9.9517 1.842702,1.84271 -1.842702,1.8427 -1.842703,-1.8427 z m 13.023354,9.6323 a 0.9120908,0.9120908 0 0 1 -0.912091,0.91209 0.9120908,0.9120908 0 0 1 -0.912092,-0.91209 0.9120908,0.9120908 0 0 1 0.912092,-0.91209 0.9120908,0.9120908 0 0 1 0.912091,0.91209 z m -0.645325,15.47245 -0.251043,-14.5605 m -1.051944,13.25751 h 2.605975 v 2.60598 h -2.605975 z m 2.481846,16.77547 a 0.9120908,0.9120908 0 0 1 -0.912091,0.91209 0.9120908,0.9120908 0 0 1 -0.912091,-0.91209 0.9120908,0.9120908 0 0 1 0.912091,-0.91209 0.9120908,0.9120908 0 0 1 0.912091,0.91209 z m -1.178859,-15.47248 0.251045,14.56052 m -8.204463,9.47184 a 0.9120908,0.9120908 0 0 1 -0.912091,0.91209 0.9120908,0.9120908 0 0 1 -0.912091,-0.91209 0.9120908,0.9120908 0 0 1 0.912091,-0.91209 0.9120908,0.9120908 0 0 1 0.912091,0.91209 z m -7.412411,8.19306 5.933425,-7.47854 m -7.236412,6.17555 h 2.605975 v 2.60598 h -2.605975 z m -7.001469,12.91961 a 0.9120908,0.9120908 0 0 1 -0.912091,0.91209 0.9120908,0.9120908 0 0 1 -0.912091,-0.91209 0.9120908,0.9120908 0 0 1 0.912091,-0.91209 0.9120908,0.9120908 0 0 1 0.912091,0.91209 z m 8.304456,-11.61662 -8.649652,10.9021 m -4.287992,13.44153 1.842702,1.8427 -1.842702,1.84271 -1.842702,-1.84271 z m 5.507413,-10.57271 a 0.9120908,0.9120908 0 0 1 -0.912091,0.91209 0.9120908,0.9120908 0 0 1 -0.912092,-0.91209 0.9120908,0.9120908 0 0 1 0.912092,-0.91209 0.9120908,0.9120908 0 0 1 0.912091,0.91209 z m -5.374627,-8.96912 4.056241,8.15252 m -5.359228,-9.45551 h 2.605974 v 2.60598 h -2.605974 z m -0.784117,-4.725 a 0.9120908,0.9120908 0 0 1 -0.912091,0.91209 0.9120908,0.9120908 0 0 1 -0.912091,-0.91209 0.9120908,0.9120908 0 0 1 0.912091,-0.91209 0.9120908,0.9120908 0 0 1 0.912091,0.91209 z m 2.087104,6.02799 -2.5929,-5.21139 m -5.143363,-3.12198 1.842703,1.8427 -1.842703,1.84271 -1.842702,-1.84271 z m 6.401811,13.13431 a 0.9120908,0.9120908 0 0 1 -0.912091,0.91209 0.9120908,0.9120908 0 0 1 -0.912091,-0.91209 0.9120908,0.9120908 0 0 1 0.912091,-0.91208 0.9120908,0.9120908 0 0 1 0.912091,0.91208 z m -12.873439,3.51572 11.086273,-3.25851 m -12.389261,1.95552 h 2.605975 v 2.60598 h -2.605975 z m -3.71494,3.04596 a 0.9120908,0.9120908 0 0 1 -0.912091,0.91209 0.9120908,0.9120908 0 0 1 -0.912091,-0.91209 0.9120908,0.9120908 0 0 1 0.912091,-0.91209 0.9120908,0.9120908 0 0 1 0.912091,0.91209 z m 5.017928,-1.74297 -5.054945,1.48576 m -6.129081,-2.49194 a 0.9120908,0.9120908 0 0 1 -0.9120906,0.91209 0.9120908,0.9120908 0 0 1 -0.9120908,-0.91209 0.9120908,0.9120908 0 0 1 0.9120908,-0.91209 0.9120908,0.9120908 0 0 1 0.9120906,0.91209 z m -3.3432066,-6.13809 2.0952483,5.29009 m -3.3982351,-6.59308 h 2.6059737 v 2.60599 H 5.6312016 Z m -0.610033,-5.82987 a 0.9120908,0.9120908 0 0 1 -0.9120908,0.91209 0.9120908,0.9120908 0 0 1 -0.9120908,-0.91209 0.9120908,0.9120908 0 0 1 0.9120908,-0.91208 0.9120908,0.9120908 0 0 1 0.9120908,0.91208 z m 1.9130198,7.13286 -2.4892436,-6.28486 M 7.51668,245.22055 a 0.9120908,0.9120908 0 0 1 -0.9120908,0.91209 0.9120908,0.9120908 0 0 1 -0.9120908,-0.91209 0.9120908,0.9120908 0 0 1 0.9120908,-0.91209 0.9120908,0.9120908 0 0 1 0.9120908,0.91209 z m 7.34474,-2.51342 -7.3842712,2.24781 m 6.0812832,-3.5508 h 2.605975 v 2.60598 h -2.605975 z m 17.554257,-3.36634 a 0.9120908,0.9120908 0 0 1 -0.912091,0.91209 0.9120908,0.9120908 0 0 1 -0.912091,-0.91209 0.9120908,0.9120908 0 0 1 0.912091,-0.91209 0.9120908,0.9120908 0 0 1 0.912091,0.91209 z m -16.251269,4.66933 14.466618,-4.40372 m 11.949547,14.57167 1.842702,1.8427 -1.842702,1.84271 -1.842702,-1.84271 z"
       id="path3819-3"
       inkscape:connector-curvature="0" />
  </g>
</svg>
