<?xml version="1.0" encoding="UTF-8" standalone="no"?>
<!-- Created with Inkscape (http://www.inkscape.org/) -->

<svg
   xmlns:dc="http://purl.org/dc/elements/1.1/"
   xmlns:cc="http://creativecommons.org/ns#"
   xmlns:rdf="http://www.w3.org/1999/02/22-rdf-syntax-ns#"
   xmlns:svg="http://www.w3.org/2000/svg"
   xmlns="http://www.w3.org/2000/svg"
   xmlns:sodipodi="http://sodipodi.sourceforge.net/DTD/sodipodi-0.dtd"
   xmlns:inkscape="http://www.inkscape.org/namespaces/inkscape"
   width="100mm"
   height="100mm"
   viewBox="0 0 100 100"
   version="1.1"
   id="svg87"
   inkscape:version="0.92.3 (2405546, 2018-03-11)"
   sodipodi:docname="logo-tech.svg">
  <defs
     id="defs81">
    <inkscape:path-effect
       effect="show_handles"
       id="path-effect815"
       is_visible="true"
       nodes="true"
       handles="true"
       original_path="true"
       scale_nodes_and_handles="10" />
    <inkscape:path-effect
       effect="knot"
       id="path-effect3778"
       is_visible="true"
       interruption_width="2"
       prop_to_stroke_width="true"
       add_stroke_width="true"
       add_other_stroke_width="true"
       switcher_size="15"
       crossing_points_vector="" />
    <inkscape:path-effect
       effect="sketch"
       id="path-effect5888"
       is_visible="true"
       nbiter_approxstrokes="5"
       strokelength="150"
       strokelength_rdm="1;1"
       strokeoverlap="0"
       strokeoverlap_rdm="0;1"
       ends_tolerance="0.1;1"
       parallel_offset="5;1"
       tremble_size="1;1"
       tremble_frequency="1"
       nbtangents="10"
       tgt_places_rdmness="0.2;1"
       tgtscale="0"
       tgtlength="99"
       tgtlength_rdm="0;1" />
  </defs>
  <sodipodi:namedview
     id="base"
     pagecolor="#ffffff"
     bordercolor="#666666"
     borderopacity="1.0"
     inkscape:pageopacity="0.0"
     inkscape:pageshadow="2"
     inkscape:zoom="1.4"
     inkscape:cx="196.52889"
     inkscape:cy="128.33351"
     inkscape:document-units="mm"
     inkscape:current-layer="layer1"
     showgrid="false"
     inkscape:window-width="1366"
     inkscape:window-height="712"
     inkscape:window-x="0"
     inkscape:window-y="0"
     inkscape:window-maximized="1"
     showguides="true"
     inkscape:guide-bbox="true"
     inkscape:snap-nodes="true"
     inkscape:snap-global="false" />
  <metadata
     id="metadata84">
    <rdf:RDF>
      <cc:Work
         rdf:about="">
        <dc:format>image/svg+xml</dc:format>
        <dc:type
           rdf:resource="http://purl.org/dc/dcmitype/StillImage" />
        <dc:title></dc:title>
      </cc:Work>
    </rdf:RDF>
  </metadata>
  <g
     inkscape:label="Layer 1"
     inkscape:groupmode="layer"
     id="layer1"
     transform="translate(0,-197)">
    <path
       style="fill:none;stroke:#000000;stroke-width:0.5;stroke-linecap:butt;stroke-linejoin:miter;stroke-miterlimit:4;stroke-dasharray:none;stroke-opacity:1"
       d="m 67.70561,283.81126 c 0,0 -9.331394,-12.53722 -6.387034,-21.37026 2.864189,-8.59254 10.463792,-10.94972 10.463792,-10.94972 0,0 -4.048985,8.98116 2.390508,13.92492 7.728383,5.93327 17.508431,0.13769 19.527513,-5.91956 2.676692,-8.03004 -1.50169,-15.50486 -8.030074,-17.41694 -11.578821,-3.39127 -22.990492,6.63233 -26.921363,11.20088 -13.115791,15.52475 -14.721809,20.88428 -15.524818,28.64665 -0.803009,7.76238 5.240146,13.16928 5.240146,13.16928 0,0 6.953228,-5.34102 6.953228,-14.44174 0.422117,-6.54877 -1.867012,-12.0493 -3.794598,-17.87846 m -3.687797,-8.9007 c -4.550381,-8.83305 -12.848129,-19.53977 -11.242111,-33.72617 1.606018,-14.18642 14.240005,-21.41345 14.240005,-21.41345 0,0 12.152188,7.81591 12.419857,23.34065 0.267669,15.52475 -8.993685,24.03659 -15.417751,32.33431 -6.424064,8.29771 -16.813791,29.65564 -16.813791,29.65564 0,0 9.645991,-14.62436 3.965662,-24.83762 -3.28361,-5.90395 -7.762403,-6.51259 -7.762403,-6.51259 0,0 5.508272,11.32976 -6.493497,14.85736 -5.950056,1.74886 -12.1369886,-1.00958 -14.5763202,-7.16841 -2.8346564,-7.15696 -0.3307132,-15.27455 7.9540172,-17.79646 15.391011,-4.6851 26.505429,12.05124 26.505429,12.05124 m 26.9914,27.28026 1.870887,1.87089 -1.870887,1.87089 -1.870887,-1.87089 z m -8.405352,-10.66633 a 0.92604162,0.92604162 0 0 1 -0.926042,0.92604 0.92604162,0.92604162 0 0 1 -0.926042,-0.92604 0.92604162,0.92604162 0 0 1 0.926042,-0.92604 0.92604162,0.92604162 0 0 1 0.926042,0.92604 z m 2.018318,-8.83304 -2.651519,7.95452 m 1.328602,-9.27744 h 2.645834 v 2.64584 h -2.645834 z m 5.113148,-7.26962 a 0.92604162,0.92604162 0 0 1 -0.926042,0.92604 0.92604162,0.92604162 0 0 1 -0.926042,-0.92604 0.92604162,0.92604162 0 0 1 0.926042,-0.92604 0.92604162,0.92604162 0 0 1 0.926042,0.92604 z m -3.790231,8.59254 2.571348,-7.71402 m 7.892444,-5.10659 1.870887,1.87089 -1.870887,1.87089 -1.870887,-1.87089 z m -3.122943,10.85205 a 0.92604162,0.92604162 0 0 1 -0.926042,0.92604 0.92604162,0.92604162 0 0 1 -0.926042,-0.92604 0.92604162,0.92604162 0 0 1 0.926042,-0.92604 0.92604162,0.92604162 0 0 1 0.926042,0.92604 z m 5.513451,4.94376 -5.704956,-4.37984 m 4.382039,3.05692 h 2.645834 v 2.64584 h -2.645834 z m 9.977342,7.25619 a 0.92604162,0.92604162 0 0 1 -0.926042,0.92604 0.92604162,0.92604162 0 0 1 -0.926042,-0.92604 0.92604162,0.92604162 0 0 1 0.926042,-0.92604 0.92604162,0.92604162 0 0 1 0.926042,0.92604 z m -8.654425,-5.93327 6.993846,5.36935 m 11.440627,-5.23166 a 0.92604162,0.92604162 0 0 1 -0.926042,0.92604 0.92604162,0.92604162 0 0 1 -0.926042,-0.92604 0.92604162,0.92604162 0 0 1 0.926042,-0.92604 0.92604162,0.92604162 0 0 1 0.926042,0.92604 z m 1.09304,-6.05725 -1.726242,5.17873 m 0.403325,-6.50165 h 2.645834 v 2.64584 h -2.645834 z m 4.925651,-6.70712 a 0.92604162,0.92604162 0 0 1 -0.926042,0.92604 0.92604162,0.92604162 0 0 1 -0.926042,-0.92604 0.92604162,0.92604162 0 0 1 0.926042,-0.92604 0.92604162,0.92604162 0 0 1 0.926042,0.92604 z m -3.602734,8.03004 2.383851,-7.15152 m -2.959499,-8.35334 a 0.92604162,0.92604162 0 0 1 -0.926042,0.92604 0.92604162,0.92604162 0 0 1 -0.926042,-0.92604 0.92604162,0.92604162 0 0 1 0.926042,-0.92604 0.92604162,0.92604162 0 0 1 0.926042,0.92604 z m -7.454426,-1.91208 5.639676,1.65179 m -6.962593,-2.97471 h 2.645834 v 2.64584 h -2.645834 z m -9.329862,-2.06835 a 0.92604162,0.92604162 0 0 1 -0.926042,0.92604 0.92604162,0.92604162 0 0 1 -0.926042,-0.92604 0.92604162,0.92604162 0 0 1 0.926042,-0.92604 0.92604162,0.92604162 0 0 1 0.926042,0.92604 z m 10.652779,3.39127 -10.690113,-3.13098 m -11.374337,9.76331 a 0.92604162,0.92604162 0 0 1 -0.926042,0.92604 0.92604162,0.92604162 0 0 1 -0.926042,-0.92604 0.92604162,0.92604162 0 0 1 0.926042,-0.92604 0.92604162,0.92604162 0 0 1 0.926042,0.92604 z m -4.856913,4.56855 3.326886,-3.86658 m -4.649803,2.54366 h 2.645834 v 2.64584 h -2.645834 z m -10.866832,16.84767 a 0.92604162,0.92604162 0 0 1 -0.926042,0.92604 0.92604162,0.92604162 0 0 1 -0.926042,-0.92604 0.92604162,0.92604162 0 0 1 0.926042,-0.92604 0.92604162,0.92604162 0 0 1 0.926042,0.92604 z m 12.189749,-15.52475 -12.518167,14.81736 m -1.2776,6.06692 a 0.92604162,0.92604162 0 0 1 -0.926042,0.92604 0.92604162,0.92604162 0 0 1 -0.926042,-0.92604 0.92604162,0.92604162 0 0 1 0.926042,-0.92604 0.92604162,0.92604162 0 0 1 0.926042,0.92604 z m -1.729051,7.76237 0.707719,-6.84124 m -2.030636,5.51832 h 2.645834 v 2.64584 h -2.645834 z m 1.44595,9.0853 a 0.92604162,0.92604162 0 0 1 -0.926042,0.92604 0.92604162,0.92604162 0 0 1 -0.926042,-0.92604 0.92604162,0.92604162 0 0 1 0.926042,-0.92604 0.92604162,0.92604162 0 0 1 0.926042,0.92604 z m -0.123033,-7.76238 -0.70772,6.84125 m 5.947866,4.45714 1.870887,1.87089 -1.870887,1.87089 -1.870887,-1.87089 z m 7.87927,-3.47013 a 0.92604162,0.92604162 0 0 1 -0.926042,0.92604 0.92604162,0.92604162 0 0 1 -0.926042,-0.92604 0.92604162,0.92604162 0 0 1 0.926042,-0.92604 0.92604162,0.92604162 0 0 1 0.926042,0.92604 z m -0.926042,-9.10072 v 8.17468 m 0,-10.04557 1.870887,1.87089 -1.870887,1.87089 -1.870887,-1.87089 z m 1.348159,-4.67788 a 0.92604162,0.92604162 0 0 1 -0.926042,0.92604 0.92604162,0.92604162 0 0 1 -0.926042,-0.92604 0.92604162,0.92604162 0 0 1 0.926042,-0.92604 0.92604162,0.92604162 0 0 1 0.926042,0.92604 z m -1.348159,6.54877 0.36255,-5.62465 m -1.30352,-6.42465 a 0.92604162,0.92604162 0 0 1 -0.926042,0.92604 0.92604162,0.92604162 0 0 1 -0.926042,-0.92604 0.92604162,0.92604162 0 0 1 0.926042,-0.92604 0.92604162,0.92604162 0 0 1 0.926042,0.92604 z m -2.853628,-5.82916 1.636846,4.94994 m -1.636846,-6.82083 1.870887,1.87089 -1.870887,1.87089 -1.870887,-1.87089 z m -3.687797,-8.9007 1.870887,1.87089 -1.870887,1.87089 -1.870887,-1.87089 z m -3.624339,-6.96216 a 0.92604162,0.92604162 0 0 1 -0.926042,0.92604 0.92604162,0.92604162 0 0 1 -0.926042,-0.92604 0.92604162,0.92604162 0 0 1 0.926042,-0.92604 0.92604162,0.92604162 0 0 1 0.926042,0.92604 z m 3.624339,8.83305 -4.126293,-8.00982 m -7.795794,-11.52995 a 0.92604162,0.92604162 0 0 1 -0.926042,0.92604 0.92604162,0.92604162 0 0 1 -0.926042,-0.92604 0.92604162,0.92604162 0 0 1 0.926042,-0.92604 0.92604162,0.92604162 0 0 1 0.926042,0.92604 z m 0.679976,-14.1864 -1.501848,13.26624 m 0.178931,-14.58916 h 2.645834 v 2.64584 h -2.645834 z m 3.854977,-12.8635 a 0.92604162,0.92604162 0 0 1 -0.926042,0.92604 0.92604162,0.92604162 0 0 1 -0.926042,-0.92604 0.92604162,0.92604162 0 0 1 0.926042,-0.92604 0.92604162,0.92604162 0 0 1 0.926042,0.92604 z m -2.53206,14.18642 1.501848,-13.26626 m 12.738157,-10.01808 1.870887,1.87089 -1.870887,1.87089 -1.870887,-1.87089 z m 13.07823,9.6868 a 0.92604162,0.92604162 0 0 1 -0.926042,0.92604 0.92604162,0.92604162 0 0 1 -0.926042,-0.92604 0.92604162,0.92604162 0 0 1 0.926042,-0.92604 0.92604162,0.92604162 0 0 1 0.926042,0.92604 z m -0.658373,15.52474 -0.251705,-14.59884 m -1.071212,13.27592 h 2.645834 v 2.64584 h -2.645834 z m 2.516628,16.84767 a 0.92604162,0.92604162 0 0 1 -0.926042,0.92604 0.92604162,0.92604162 0 0 1 -0.926042,-0.92604 0.92604162,0.92604162 0 0 1 0.926042,-0.92604 0.92604162,0.92604162 0 0 1 0.926042,0.92604 z m -1.193711,-15.52475 0.251705,14.59885 m -8.319348,9.43774 a 0.92604162,0.92604162 0 0 1 -0.926042,0.92604 0.92604162,0.92604162 0 0 1 -0.926042,-0.92604 0.92604162,0.92604162 0 0 1 0.926042,-0.92604 0.92604162,0.92604162 0 0 1 0.926042,0.92604 z m -7.350108,8.29772 5.857167,-7.56548 m -7.180084,6.24256 h 2.645834 v 2.64584 h -2.645834 z m -4.175105,9.62063 a 0.92604162,0.92604162 0 0 1 -0.926042,0.92604 0.92604162,0.92604162 0 0 1 -0.926042,-0.92604 0.92604162,0.92604162 0 0 1 0.926042,-0.92604 0.92604162,0.92604162 0 0 1 0.926042,0.92604 z m 5.498022,-8.29771 -5.857164,7.56547 m -10.956627,20.21928 1.870887,1.87089 -1.870887,1.87089 -1.870887,-1.87089 z m 10.572033,-12.75347 a 0.92604162,0.92604162 0 0 1 -0.926042,0.92604 0.92604162,0.92604162 0 0 1 -0.926042,-0.92604 0.92604162,0.92604162 0 0 1 0.926042,-0.92604 0.92604162,0.92604162 0 0 1 0.926042,0.92604 z m -6.606371,-10.21326 5.230222,9.40397 m -6.553139,-10.72689 h 2.645834 v 2.64584 h -2.645834 z m -1.034651,-4.58103 a 0.92604162,0.92604162 0 0 1 -0.926042,0.92604 0.92604162,0.92604162 0 0 1 -0.926042,-0.92604 0.92604162,0.92604162 0 0 1 0.926042,-0.92604 0.92604162,0.92604162 0 0 1 0.926042,0.92604 z m 2.357568,5.90395 -2.833503,-5.09466 m -4.9289,-3.28882 1.870887,1.87089 -1.870887,1.87089 -1.870887,-1.87089 z m 6.434314,13.20065 a 0.92604162,0.92604162 0 0 1 -0.926042,0.92604 0.92604162,0.92604162 0 0 1 -0.926042,-0.92604 0.92604162,0.92604162 0 0 1 0.926042,-0.92604 0.92604162,0.92604162 0 0 1 0.926042,0.92604 z m -12.927811,3.5276 11.11331,-3.26646 m -12.436227,1.94354 h 2.645834 v 2.64584 h -2.645834 z m -3.701097,3.07178 a 0.92604162,0.92604162 0 0 1 -0.926042,0.92604 0.92604162,0.92604162 0 0 1 -0.926042,-0.92604 0.92604162,0.92604162 0 0 1 0.926042,-0.92604 0.92604162,0.92604162 0 0 1 0.926042,0.92604 z m 5.024014,-1.74886 -5.061597,1.48772 m -6.14935,-2.4973 a 0.92604162,0.92604162 0 0 1 -0.9260416,0.92604 0.92604162,0.92604162 0 0 1 -0.9260416,-0.92604 0.92604162,0.92604162 0 0 1 0.9260416,-0.92604 0.92604162,0.92604162 0 0 1 0.9260416,0.92604 z m -3.3653732,-6.15883 2.0983268,5.29786 m -3.4212434,-6.62078 h 2.6458332 v 2.64584 H 4.9318472 Z M 4.346149,253.24837 a 0.92604162,0.92604162 0 0 1 -0.9260416,0.92604 0.92604162,0.92604162 0 0 1 -0.9260416,-0.92604 0.92604162,0.92604162 0 0 1 0.9260416,-0.92604 0.92604162,0.92604162 0 0 1 0.9260416,0.92604 z m 1.9086148,7.15696 -2.4936521,-6.29599 m 3.0889805,-8.97856 a 0.92604162,0.92604162 0 0 1 -0.9260416,0.92604 0.92604162,0.92604162 0 0 1 -0.9260416,-0.92604 0.92604162,0.92604162 0 0 1 0.9260416,-0.92604 0.92604162,0.92604162 0 0 1 0.9260416,0.92604 z m 7.3586888,-2.52191 -7.3988246,2.25224 m 6.0759076,-3.57516 h 2.645834 v 2.64584 h -2.645834 z m 17.63997,-3.36218 a 0.92604162,0.92604162 0 0 1 -0.926042,0.92604 0.92604162,0.92604162 0 0 1 -0.926042,-0.92604 0.92604162,0.92604162 0 0 1 0.926042,-0.92604 0.92604162,0.92604162 0 0 1 0.926042,0.92604 z m -16.317053,4.6851 14.505105,-4.41543 m 12.000324,14.59578 1.870887,1.87089 -1.870887,1.87089 -1.870887,-1.87089 z"
       id="path3819" />
  </g>
</svg>
