<?xml version="1.0" encoding="UTF-8" standalone="no"?>
<!-- Created with Inkscape (http://www.inkscape.org/) -->

<svg
   xmlns:dc="http://purl.org/dc/elements/1.1/"
   xmlns:cc="http://creativecommons.org/ns#"
   xmlns:rdf="http://www.w3.org/1999/02/22-rdf-syntax-ns#"
   xmlns:svg="http://www.w3.org/2000/svg"
   xmlns="http://www.w3.org/2000/svg"
   xmlns:sodipodi="http://sodipodi.sourceforge.net/DTD/sodipodi-0.dtd"
   xmlns:inkscape="http://www.inkscape.org/namespaces/inkscape"
   width="100mm"
   height="100mm"
   viewBox="0 0 100 100"
   version="1.1"
   id="svg87"
   inkscape:version="0.92.3 (2405546, 2018-03-11)"
   sodipodi:docname="logo-design.svg">
  <defs
     id="defs81">
    <inkscape:path-effect
       effect="sketch"
       id="path-effect885"
       is_visible="true"
       nbiter_approxstrokes="13"
       strokelength="300"
       strokelength_rdm="0.1;1"
       strokeoverlap="0.3"
       strokeoverlap_rdm="0.1;1"
       ends_tolerance="0;1"
       parallel_offset="0;2147483646"
       tremble_size="3;1"
       tremble_frequency="1"
       nbtangents="5"
       tgt_places_rdmness="1;1"
       tgtscale="10"
       tgtlength="100"
       tgtlength_rdm="0.3;1" />
    <inkscape:path-effect
       effect="knot"
       id="path-effect3778"
       is_visible="true"
       interruption_width="2"
       prop_to_stroke_width="true"
       add_stroke_width="true"
       add_other_stroke_width="true"
       switcher_size="15"
       crossing_points_vector="" />
    <inkscape:path-effect
       effect="sketch"
       id="path-effect5888"
       is_visible="true"
       nbiter_approxstrokes="5"
       strokelength="150"
       strokelength_rdm="1;1"
       strokeoverlap="0"
       strokeoverlap_rdm="0;1"
       ends_tolerance="0.1;1"
       parallel_offset="5;1"
       tremble_size="1;1"
       tremble_frequency="1"
       nbtangents="10"
       tgt_places_rdmness="0.2;1"
       tgtscale="0"
       tgtlength="99"
       tgtlength_rdm="0;1" />
    <inkscape:path-effect
       effect="sketch"
       id="path-effect885-5"
       is_visible="true"
       nbiter_approxstrokes="13"
       strokelength="300"
       strokelength_rdm="0.1;1"
       strokeoverlap="0.3"
       strokeoverlap_rdm="0.1;1"
       ends_tolerance="0;1"
       parallel_offset="0;2147483646"
       tremble_size="3;1"
       tremble_frequency="1"
       nbtangents="5"
       tgt_places_rdmness="1;1"
       tgtscale="10"
       tgtlength="100"
       tgtlength_rdm="0.3;1" />
  </defs>
  <sodipodi:namedview
     id="base"
     pagecolor="#ffffff"
     bordercolor="#666666"
     borderopacity="1.0"
     inkscape:pageopacity="0.0"
     inkscape:pageshadow="2"
     inkscape:zoom="0.98994949"
     inkscape:cx="11.489832"
     inkscape:cy="242.40404"
     inkscape:document-units="mm"
     inkscape:current-layer="layer1"
     showgrid="false"
     inkscape:window-width="1366"
     inkscape:window-height="712"
     inkscape:window-x="0"
     inkscape:window-y="0"
     inkscape:window-maximized="1"
     showguides="true"
     inkscape:guide-bbox="true"
     inkscape:snap-nodes="true"
     inkscape:snap-global="false" />
  <metadata
     id="metadata84">
    <rdf:RDF>
      <cc:Work
         rdf:about="">
        <dc:format>image/svg+xml</dc:format>
        <dc:type
           rdf:resource="http://purl.org/dc/dcmitype/StillImage" />
        <dc:title></dc:title>
      </cc:Work>
    </rdf:RDF>
  </metadata>
  <g
     inkscape:label="Layer 1"
     inkscape:groupmode="layer"
     id="layer1"
     transform="translate(0,-197)">
    <path
       style="fill:none;stroke:#000000;stroke-width:0.29567239;stroke-linecap:butt;stroke-linejoin:bevel;stroke-miterlimit:4;stroke-dasharray:none;stroke-opacity:1"
       d="m 66.179306,282.22182 c -7e-6,-10e-6 -1.5e-5,-2e-5 -2.6e-5,-4e-5 -5.33e-4,-9e-4 -0.0061,-0.0103 -0.01631,-0.0279 -0.0102,-0.0176 -0.02505,-0.0435 -0.04412,-0.0773 -0.03816,-0.0676 -0.09326,-0.16715 -0.162122,-0.29648 -0.137721,-0.25866 -0.33046,-0.63655 -0.552682,-1.11705 -0.444371,-0.96084 -1.0069,-2.33258 -1.482696,-3.98142 -0.951415,-3.29705 -1.557929,-7.70702 -0.17298,-12.16807 1.329463,-4.28232 3.769411,-7.08594 5.883903,-8.8229 2.113806,-1.7364 3.900975,-2.40517 3.916665,-2.41102 6.9e-5,-3e-5 1.04e-4,-4e-5 1.04e-4,-4e-5 0,0 -1.1e-5,2e-5 -3.4e-5,7e-5 -0.0066,0.0147 -0.990714,2.22088 -1.180707,5.02961 -0.095,1.40438 0.0086,2.95998 0.532986,4.4669 0.524448,1.50697 1.469939,2.96569 3.059586,4.17587 3.822544,2.91005 8.142992,2.93523 11.760619,1.4834 3.616839,-1.45151 6.527538,-4.37847 7.52415,-7.36797 2.642161,-7.92557 -1.480798,-15.29793 -7.923374,-17.18468 -2.856912,-0.83665 -5.704386,-0.84632 -8.429684,-0.31976 -2.725309,0.52655 -5.328651,1.58937 -7.697035,2.89776 -4.736392,2.61657 -8.534332,6.21615 -10.481928,8.46995 -6.500794,7.66117 -10.155409,12.81256 -12.289147,17.01051 -2.132996,4.19649 -2.743105,7.43478 -3.159453,11.2667 -0.415387,3.82307 0.851284,7.06986 2.222176,9.36202 1.371111,2.29252 2.848348,3.63313 2.86036,3.64402 5.1e-5,4e-5 7.7e-5,7e-5 7.6e-5,7e-5 0,0 2.5e-5,-2e-5 7.6e-5,-6e-5 0.01281,-0.01 1.713838,-1.32644 3.405366,-3.75706 1.691109,-2.43001 3.374882,-5.97695 3.345871,-10.44299 0.374253,-6.44327 -1.919171,-11.84735 -3.861371,-17.58184 m 10.597853,16.22628 c -7e-6,-10e-6 -1.6e-5,-3e-5 -2.7e-5,-4e-5 -5.45e-4,-9e-4 -0.0063,-0.0102 -0.01672,-0.0278 -0.01046,-0.0176 -0.02569,-0.0433 -0.04526,-0.077 -0.03915,-0.0674 -0.0957,-0.16652 -0.166422,-0.29536 -0.141436,-0.25768 -0.339529,-0.63416 -0.568312,-1.11291 -0.45759,-0.95756 -1.037868,-2.32406 -1.53334,-3.96767 -0.991123,-3.28782 -1.641979,-7.68132 -0.297244,-12.13115 1.290146,-4.26919 3.706125,-7.06477 5.801905,-8.79405 2.095891,-1.72937 3.873388,-2.3938 3.888646,-2.39949 6.9e-5,-3e-5 1.03e-4,-4e-5 1.03e-4,-4e-5 0,0 -1.2e-5,3e-5 -3.6e-5,8e-5 -0.0069,0.0153 -1.004371,2.22627 -1.207454,5.04212 -0.101535,1.40783 -0.0045,2.96669 0.514002,4.47732 0.518475,1.51059 1.458374,2.97295 3.042537,4.1874 3.809306,2.92029 8.125712,2.95259 11.740622,1.50852 3.614773,-1.44401 6.528011,-4.36419 7.528894,-7.34819 2.653712,-7.91165 -1.446454,-15.27352 -7.858791,-17.15059 -2.843025,-0.83222 -5.675581,-0.83786 -8.384493,-0.30736 -2.709029,0.53053 -5.294088,1.59715 -7.643475,2.90927 -4.699555,2.62469 -8.45253,6.22957 -10.374638,8.48804 -6.408159,7.66902 -10.000383,12.83904 -12.07899,17.03788 -2.080437,4.20253 -2.652234,7.44529 -3.021019,11.28233 -0.36808,3.82971 0.94037,7.07805 2.347671,9.37556 1.406827,2.29673 2.910254,3.63932 2.922997,3.65068 5.2e-5,5e-5 7.8e-5,7e-5 7.9e-5,7e-5 0,0 2.6e-5,-2e-5 7.8e-5,-6e-5 0.01391,-0.0105 1.742348,-1.32265 3.476236,-3.74952 1.734208,-2.42732 3.470242,-5.9649 3.507853,-10.42561 0.470167,-6.42762 -1.737192,-11.8326 -3.580854,-17.55034 m 10.974152,17.37788 c -7e-6,-10e-6 -1.6e-5,-3e-5 -2.8e-5,-4e-5 -5.49e-4,-9e-4 -0.0063,-0.0102 -0.01687,-0.0278 -0.01056,-0.0176 -0.02592,-0.0433 -0.04568,-0.077 -0.03951,-0.0674 -0.0966,-0.16653 -0.168,-0.29538 -0.142801,-0.25771 -0.342868,-0.63425 -0.574093,-1.11311 -0.462507,-0.95782 -1.049487,-2.3246 -1.552632,-3.96911 -1.006658,-3.29023 -1.675711,-7.68565 -0.349684,-12.14235 1.271882,-4.27473 3.674935,-7.07768 5.760077,-8.81225 2.08554,-1.73489 3.856716,-2.40409 3.871675,-2.40972 6.8e-5,-3e-5 1.02e-4,-4e-5 1.02e-4,-4e-5 0,0 -1.3e-5,2e-5 -3.6e-5,8e-5 -0.0071,0.0156 -1.013046,2.2202 -1.226075,5.02873 -0.106495,1.40401 -0.01477,2.95829 0.498321,4.46412 0.513028,1.50565 1.447348,2.96271 3.024985,4.17034 3.794047,2.90422 8.098403,2.92142 11.701482,1.46071 3.602867,-1.46062 6.505155,-4.39882 7.497004,-7.39858 2.629911,-7.95388 -1.48626,-15.35162 -7.916548,-17.27232 -2.850659,-0.85148 -5.690679,-0.87594 -8.406578,-0.36508 -2.715921,0.51087 -5.308481,1.55721 -7.664509,2.84856 -4.712233,2.58281 -8.480078,6.14649 -10.408776,8.37839 -6.434716,7.5845 -10.040596,12.6884 -12.132748,16.84263 -2.092679,4.15528 -2.673168,7.36451 -3.052461,11.15961 -0.378635,3.78851 0.920933,6.99975 2.320275,9.26589 1.399394,2.26624 2.896636,3.5849 2.909501,3.59621 5.2e-5,5e-5 7.8e-5,7e-5 7.9e-5,7e-5 0,0 2.6e-5,-2e-5 7.7e-5,-6e-5 0.01318,-0.0102 1.736719,-1.34871 3.461015,-3.81111 1.724928,-2.4633 3.449789,-6.04925 3.472916,-10.56664 0.449236,-6.51127 -1.776984,-11.99218 -3.643268,-17.79763 m 14.164086,17.78828 c -7e-6,-10e-6 -1.6e-5,-2e-5 -2.7e-5,-4e-5 -5.31e-4,-8.8e-4 -0.0061,-0.0101 -0.0163,-0.0275 -0.0102,-0.0174 -0.02503,-0.0428 -0.04409,-0.0761 -0.03813,-0.0666 -0.0932,-0.1646 -0.162013,-0.29197 -0.137623,-0.25475 -0.330219,-0.627 -0.55224,-1.10054 -0.443996,-0.94699 -1.005842,-2.29943 -1.480726,-3.92694 -0.949333,-3.2535 -1.553158,-7.61361 -0.163237,-12.02521 1.334446,-4.23553 3.7784,-7.00373 5.897295,-8.71566 2.118507,-1.71161 3.907382,-2.36358 3.923825,-2.36956 6.9e-5,-2e-5 1.04e-4,-3e-5 1.05e-4,-3e-5 0,0 -1.1e-5,2e-5 -3.4e-5,8e-5 -0.0064,0.0146 -0.986848,2.24242 -1.171535,5.07354 -0.09236,1.41587 0.01419,2.98355 0.541879,4.50252 0.527743,1.51914 1.47678,2.99002 3.070927,4.21411 3.83229,2.94269 8.164326,2.99113 11.791864,1.56168 3.627722,-1.42952 6.549758,-4.33722 7.556576,-7.31236 2.669437,-7.88813 -1.431308,-15.23852 -7.846044,-17.10558 -2.844865,-0.82802 -5.680243,-0.83049 -8.393283,-0.29742 -2.713057,0.53308 -5.303385,1.60159 -7.658849,2.91501 -4.710933,2.62684 -8.481324,6.23266 -10.413116,8.49015 -6.446207,7.67212 -10.062667,12.82672 -12.166872,17.02667 -2.103557,4.19865 -2.692403,7.43742 -3.082633,11.27033 -0.389393,3.82466 0.900083,7.07011 2.290823,9.36339 1.390592,2.29304 2.882049,3.63327 2.894475,3.64442 5.2e-5,5e-5 7.8e-5,7e-5 7.9e-5,7e-5 0,0 2.5e-5,-2e-5 7.6e-5,-6e-5 0.0134,-0.0103 1.729369,-1.32592 3.443944,-3.75666 1.714582,-2.43076 3.426804,-5.97541 3.434272,-10.44173 0.426798,-6.4393 -1.819131,-11.84755 -3.706135,-17.57586 m 11.635843,16.75015 c -7e-6,-10e-6 -1.6e-5,-3e-5 -2.7e-5,-4e-5 -5.47e-4,-9e-4 -0.0063,-0.0103 -0.01678,-0.0278 -0.01051,-0.0176 -0.02579,-0.0434 -0.04544,-0.0771 -0.0393,-0.0675 -0.09609,-0.16682 -0.167099,-0.29589 -0.142017,-0.25813 -0.340951,-0.63529 -0.570734,-1.11489 -0.459613,-0.95929 -1.042526,-2.32813 -1.540696,-3.97471 -0.996598,-3.29402 -1.652611,-7.69476 -0.310792,-12.15425 1.287225,-4.27805 3.703295,-7.08199 5.799348,-8.81752 2.09619,-1.73565 3.875044,-2.40491 3.890144,-2.41058 6.8e-5,-2e-5 1.03e-4,-3e-5 1.03e-4,-3e-5 0,0 -1.2e-5,2e-5 -3.6e-5,7e-5 -0.0069,0.0153 -1.003267,2.22031 -1.203883,5.02879 -0.100295,1.40406 -0.0017,2.95885 0.518723,4.46503 0.520363,1.50606 1.462608,2.96386 3.049853,4.1724 3.817173,2.90642 8.140827,2.92687 11.76566,1.46972 3.624298,-1.45693 6.548562,-4.39055 7.559496,-7.38608 2.680422,-7.9424 -1.39444,-15.32923 -7.776162,-17.23596 -2.829217,-0.84531 -5.648457,-0.86357 -8.342914,-0.34616 -2.694675,0.51745 -5.264816,1.57063 -7.598742,2.86915 -4.669091,2.59772 -8.389514,6.1749 -10.292069,8.41676 -6.341217,7.61174 -9.887272,12.74541 -11.928714,16.91307 -2.043881,4.17265 -2.589257,7.39394 -2.925435,11.20456 -0.335676,3.80492 1.001326,7.02726 2.433418,9.30623 1.431397,2.27786 2.952189,3.60452 2.965662,3.61626 5.3e-5,4e-5 8e-5,7e-5 8.2e-5,7e-5 1e-6,0 2.7e-5,-2e-5 7.9e-5,-6e-5 0.01431,-0.0109 1.762113,-1.33861 3.52449,-3.78844 1.763591,-2.45153 3.535164,-6.01676 3.618366,-10.51482 0.535601,-6.47619 -1.612171,-11.93812 -3.387476,-17.70729 m 11.520637,20.99124 c -7e-6,-10e-6 -1.6e-5,-3e-5 -2.7e-5,-5e-5 -5.47e-4,-8.8e-4 -0.0063,-0.0101 -0.01679,-0.0275 -0.01051,-0.0174 -0.0258,-0.0428 -0.04546,-0.0762 -0.03932,-0.0667 -0.09614,-0.16481 -0.167179,-0.29235 -0.142086,-0.25508 -0.341125,-0.62784 -0.571041,-1.10205 -0.459905,-0.94858 -1.043167,-2.30265 -1.541881,-3.9334 -0.997523,-3.2618 -1.655304,-7.62705 -0.315434,-12.05536 1.285429,-4.2484 3.699165,-7.03301 5.793828,-8.7558 2.095106,-1.72316 3.871765,-2.38501 3.887344,-2.39079 6.9e-5,-3e-5 1.04e-4,-4e-5 1.03e-4,-4e-5 0,0 -1.1e-5,3e-5 -3.5e-5,8e-5 -0.0069,0.0153 -1.004786,2.2299 -1.20738,5.04649 -0.101292,1.40823 -0.0038,2.96686 0.5154,4.4764 0.519142,1.50938 1.460082,2.97007 3.045684,4.18091 3.81282,2.91166 8.133913,2.93143 11.754436,1.47065 3.620496,-1.46076 6.540659,-4.40208 7.548092,-7.40639 2.671421,-7.96652 -1.412106,-15.38209 -7.802848,-17.32881 -2.833278,-0.86306 -5.656766,-0.89967 -8.355336,-0.40219 -2.698633,0.49749 -5.273618,1.52929 -7.611713,2.80525 -4.676561,2.55211 -8.408619,6.08208 -10.315344,8.29266 -6.362146,7.51442 -9.916011,12.56217 -11.969893,16.67641 -2.053785,4.11405 -2.606292,7.29273 -2.95125,11.05061 -0.344515,3.75303 0.985045,6.92794 2.410364,9.1672 1.425232,2.23913 2.940497,3.53527 2.954206,3.54697 5.3e-5,5e-5 8e-5,7e-5 8.1e-5,7e-5 10e-7,-10e-6 2.8e-5,-3e-5 7.9e-5,-7e-5 0.01348,-0.0105 1.757528,-1.37169 3.511536,-3.86682 1.755675,-2.49749 3.51776,-6.12392 3.588673,-10.69403 0.517841,-6.58177 -1.645685,-12.14037 -3.439667,-18.01857 m 9.12177,16.07414 c -7e-6,-10e-6 -1.6e-5,-2e-5 -2.8e-5,-4e-5 -5.46e-4,-8.9e-4 -0.0063,-0.0102 -0.01678,-0.0277 -0.0105,-0.0175 -0.02578,-0.0431 -0.04543,-0.0767 -0.03929,-0.0671 -0.09606,-0.16586 -0.167049,-0.2942 -0.141975,-0.25668 -0.340848,-0.63174 -0.57057,-1.10874 -0.459496,-0.95412 -1.042263,-2.31578 -1.540407,-3.95437 -0.996464,-3.27776 -1.652952,-7.65969 -0.312283,-12.10044 1.286177,-4.26027 3.700455,-7.05067 5.795244,-8.77652 2.095072,-1.72608 3.872232,-2.38881 3.887581,-2.39452 6.9e-5,-2e-5 1.03e-4,-4e-5 1.03e-4,-4e-5 0,0 -1.2e-5,3e-5 -3.6e-5,8e-5 -0.0069,0.0153 -1.004706,2.22857 -1.207377,5.04596 -0.10133,1.40861 -0.0039,2.9681 0.515173,4.4791 0.519052,1.51093 1.459779,2.97351 3.045159,4.18769 3.812226,2.91962 8.132535,2.94954 11.752099,1.50182 3.619517,-1.44771 6.538513,-4.37304 7.544822,-7.36224 2.66823,-7.92581 -1.417805,-15.30225 -7.812419,-17.19889 -2.835073,-0.84088 -5.659869,-0.85529 -8.360337,-0.33421 -2.700608,0.5211 -5.276944,1.5777 -7.617169,2.87939 -4.68138,2.60388 -8.415302,6.18658 -10.325543,8.43119 -6.368562,7.62276 -9.932058,12.75861 -11.988702,16.93144 -2.058388,4.17637 -2.614222,7.4001 -2.963301,11.21368 -0.348511,3.80737 0.977243,7.03308 2.399521,9.31369 1.421738,2.27975 2.935569,3.60828 2.948804,3.61987 5.2e-5,5e-5 7.9e-5,7e-5 8e-5,7e-5 1e-6,0 2.7e-5,-2e-5 7.9e-5,-6e-5 0.01406,-0.0107 1.754395,-1.33706 3.505422,-3.78438 1.751973,-2.44865 3.509508,-6.0117 3.574661,-10.50539 0.50969,-6.47199 -1.661689,-11.92545 -3.464188,-17.68934 m 15.032338,18.77718 c -7e-6,-1e-5 -1.6e-5,-3e-5 -2.7e-5,-4e-5 -5.37e-4,-9e-4 -0.0062,-0.0102 -0.01646,-0.0278 -0.0103,-0.0175 -0.02528,-0.0432 -0.04455,-0.0768 -0.03853,-0.0673 -0.09417,-0.16625 -0.163727,-0.29488 -0.139115,-0.25727 -0.333858,-0.63313 -0.558579,-1.11111 -0.449396,-0.95586 -1.018792,-2.32039 -1.502531,-3.96106 -0.967396,-3.28105 -1.59319,-7.66903 -0.228319,-12.10792 1.30994,-4.26024 3.735189,-7.04605 5.837933,-8.76877 2.102514,-1.72253 3.88177,-2.38138 3.89745,-2.38717 6.9e-5,-2e-5 1.04e-4,-4e-5 1.04e-4,-4e-5 0,0 -1.2e-5,3e-5 -3.6e-5,8e-5 -0.0068,0.0151 -1.000634,2.23319 -1.202217,5.05723 -0.100796,1.41209 -0.0035,2.9757 0.514488,4.49143 0.518031,1.51586 1.456664,2.98347 3.038427,4.20486 3.802878,2.93648 8.110173,2.98303 11.711486,1.55459 3.601513,-1.42852 6.497467,-4.33237 7.481828,-7.30233 2.609747,-7.87395 -1.536774,-15.2053 -8.006153,-17.04531 -2.86885,-0.81595 -5.726932,-0.80584 -8.463597,-0.25895 -2.736587,0.54687 -5.350865,1.63035 -7.730501,2.95956 -4.758885,2.6582 -8.577651,6.2987 -10.538521,8.5778 -6.543392,7.74395 -10.227764,12.95479 -12.382934,17.19573 -2.154911,4.24043 -2.78065,7.51035 -3.216107,11.38093 -0.434298,3.86029 0.815627,7.14329 2.172214,9.46346 1.356704,2.32038 2.824208,3.68374 2.835639,3.69434 5.1e-5,5e-5 7.6e-5,7e-5 7.5e-5,7e-5 0,0 2.4e-5,-10e-6 7.5e-5,-5e-5 0.01286,-0.01 1.702122,-1.30275 3.377443,-3.70019 1.67411,-2.3957 3.337314,-5.90012 3.281796,-10.31258 0.336121,-6.36888 -1.992107,-11.6962 -3.975043,-17.35172 m 15.685041,19.66576 c -7e-6,-10e-6 -1.6e-5,-3e-5 -2.7e-5,-4e-5 -5.35e-4,-8.9e-4 -0.0061,-0.0102 -0.01642,-0.0276 -0.01027,-0.0174 -0.02522,-0.0429 -0.04443,-0.0764 -0.03842,-0.0668 -0.09392,-0.16516 -0.163277,-0.29297 -0.13872,-0.25562 -0.332901,-0.62914 -0.556897,-1.10429 -0.447964,-0.95022 -1.015286,-2.30714 -1.496541,-3.94014 -0.96227,-3.26519 -1.581618,-7.6383 -0.208666,-12.06747 1.317839,-4.25137 3.749501,-7.03466 5.857928,-8.7575 2.10822,-1.72266 3.890868,-2.38312 3.90689,-2.38903 6.9e-5,-3e-5 1.04e-4,-4e-5 1.04e-4,-4e-5 0,0 -1.2e-5,3e-5 -3.5e-5,8e-5 -0.0067,0.0149 -0.99563,2.23157 -1.190849,5.05027 -0.09762,1.40945 0.0032,2.96982 0.524961,4.48123 0.521754,1.51142 1.464553,2.97422 3.051216,4.18828 3.814947,2.91905 8.131874,2.94692 11.744589,1.49545 3.612589,-1.45142 6.519911,-4.38187 7.514163,-7.37639 2.636213,-7.93978 -1.489431,-15.33206 -7.933255,-17.24843 -2.857413,-0.84978 -5.705238,-0.87326 -8.430452,-0.36191 -2.725114,0.51133 -5.328517,1.55767 -7.696221,2.84851 -4.734552,2.58123 -8.532223,6.14325 -10.477601,8.37236 -6.497683,7.58293 -10.144469,12.66715 -12.276235,16.82112 -2.129361,4.14927 -2.736725,7.3532 -3.149585,11.14247 -0.412012,3.78147 0.857977,6.98918 2.231513,9.24953 1.374094,2.26128 2.852726,3.57693 2.865087,3.58791 5.2e-5,4e-5 7.8e-5,6e-5 7.7e-5,6e-5 0,0 2.5e-5,-2e-5 7.6e-5,-6e-5 0.01239,-0.01 1.716503,-1.35311 3.410738,-3.82054 1.694378,-2.46764 3.382119,-6.06336 3.358123,-10.58812 0.381376,-6.52753 -1.905491,-12.01221 -3.84071,-17.83346 m 11.187512,14.33459 c -7e-6,-10e-6 -1.6e-5,-2e-5 -2.7e-5,-4e-5 -5.45e-4,-8.8e-4 -0.0063,-0.0101 -0.01672,-0.0274 -0.01046,-0.0173 -0.02569,-0.0427 -0.04526,-0.0759 -0.03915,-0.0664 -0.0957,-0.16412 -0.166421,-0.29113 -0.141435,-0.25401 -0.339525,-0.62521 -0.568298,-1.09743 -0.457597,-0.94455 -1.037784,-2.29293 -1.533179,-3.91639 -0.990747,-3.24677 -1.641515,-7.59271 -0.295773,-11.99487 1.291265,-4.22396 3.707518,-6.98486 5.8044,-8.68931 2.09733,-1.70481 3.874138,-2.35242 3.890064,-2.35821 6.9e-5,-2e-5 1.03e-4,-4e-5 1.03e-4,-4e-5 0,0 -1.2e-5,3e-5 -3.5e-5,8e-5 -0.0069,0.0154 -1.003621,2.24772 -1.20559,5.0865 -0.100997,1.41957 -0.0033,2.99074 0.515847,4.51388 0.519194,1.52322 1.45978,2.99818 3.044927,4.22736 3.810546,2.95484 8.131107,3.01246 11.747347,1.5935 3.617194,-1.41934 6.532815,-4.31708 7.536003,-7.28375 2.660009,-7.86624 -1.435744,-15.19867 -7.84157,-17.04657 -2.840454,-0.81939 -5.670031,-0.81367 -8.376314,-0.27221 -2.706346,0.54147 -5.288323,1.61844 -7.634868,2.94039 -4.693943,2.64438 -8.440417,6.26578 -10.35908,8.53402 -6.396099,7.70138 -9.979064,12.88824 -12.051271,17.1012 -2.073769,4.21614 -2.64072,7.46781 -3.003588,11.31604 -0.362158,3.84069 0.951418,7.09832 2.363246,9.40393 1.411165,2.30452 2.917981,3.65311 2.930736,3.66451 5.2e-5,4e-5 7.9e-5,7e-5 7.9e-5,7e-5 10e-7,0 2.7e-5,-2e-5 7.9e-5,-6e-5 0.01419,-0.0107 1.745731,-1.31601 3.484984,-3.73395 1.739538,-2.41834 3.482005,-5.94344 3.527888,-10.38962 0.482082,-6.40557 -1.714552,-11.79107 -3.545724,-17.4837 m 13.11065,20.49774 c -6e-6,-1e-5 -1.5e-5,-3e-5 -2.6e-5,-4e-5 -5.31e-4,-8.9e-4 -0.0061,-0.0102 -0.01627,-0.0276 -0.01018,-0.0174 -0.02499,-0.043 -0.04403,-0.0764 -0.03808,-0.0669 -0.09307,-0.16532 -0.161779,-0.29326 -0.137422,-0.25586 -0.329731,-0.62973 -0.551409,-1.10528 -0.4433,-0.95097 -1.004272,-2.30905 -1.478276,-3.9429 -0.947624,-3.26637 -1.549791,-7.64208 -0.159424,-12.06996 1.334852,-4.25108 3.778484,-7.03184 5.896688,-8.75308 2.11769,-1.72082 3.906209,-2.37931 3.922456,-2.38528 6.9e-5,-2e-5 1.04e-4,-3e-5 1.05e-4,-3e-5 0,0 -1.1e-5,2e-5 -3.4e-5,7e-5 -0.0065,0.0146 -0.987686,2.23412 -1.173891,5.05589 -0.09312,1.4111 0.01252,2.97364 0.539134,4.48729 0.526651,1.51376 1.474474,2.97916 3.066954,4.19664 3.828713,2.92712 8.155944,2.96318 11.779132,1.52084 3.622968,-1.44225 6.539719,-4.36242 7.541666,-7.34781 2.656481,-7.91517 -1.455963,-15.28597 -7.885163,-17.17562 -2.851178,-0.838 -5.693076,-0.84988 -8.412694,-0.32636 -2.719594,0.52352 -5.317145,1.58249 -7.679631,2.88634 -4.724527,2.60745 -8.511025,6.19547 -10.451309,8.44143 -6.477687,7.63654 -10.11422,12.76293 -12.236119,16.94547 -2.120373,4.17953 -2.721389,7.4049 -3.126613,11.2211 -0.404346,3.80793 0.872084,7.0394 2.251371,9.31993 1.379497,2.28087 2.86254,3.61187 2.874841,3.6229 5.1e-5,4e-5 7.7e-5,7e-5 7.7e-5,7e-5 0,-10e-6 2.5e-5,-2e-5 7.6e-5,-6e-5 0.01287,-0.01 1.72062,-1.33636 3.42173,-3.78098 1.701064,-2.44456 3.396898,-6.00913 3.383365,-10.49753 0.396516,-6.47373 -1.876665,-11.90985 -3.795371,-17.67482 m 9.681948,14.73565 c -7e-6,-10e-6 -1.5e-5,-3e-5 -2.6e-5,-5e-5 -5.32e-4,-8.8e-4 -0.0061,-0.0101 -0.01628,-0.0275 -0.01019,-0.0174 -0.02501,-0.0429 -0.04406,-0.0762 -0.0381,-0.0667 -0.09313,-0.16488 -0.161884,-0.29247 -0.137514,-0.25519 -0.329956,-0.62809 -0.551802,-1.10245 -0.44364,-0.94862 -1.005069,-2.30347 -1.479636,-3.93394 -0.948723,-3.25954 -1.552362,-7.62787 -0.163595,-12.05002 1.333311,-4.24558 3.775571,-7.02336 5.892751,-8.74282 2.116752,-1.71911 3.904341,-2.37685 3.920673,-2.38284 7e-5,-2e-5 1.04e-4,-4e-5 1.05e-4,-4e-5 0,0 -1.1e-5,3e-5 -3.4e-5,8e-5 -0.0065,0.0146 -0.988625,2.23513 -1.17599,5.05725 -0.0937,1.41127 0.0113,2.9738 0.537241,4.48726 0.525968,1.51354 1.473082,2.97856 3.064686,4.19522 3.826588,2.92515 8.152179,2.95817 11.77343,1.51176 3.621099,-1.44635 6.535949,-4.37173 7.536272,-7.36215 2.652258,-7.92876 -1.463797,-15.313 -7.89693,-17.22005 -2.852898,-0.84572 -5.696604,-0.86536 -8.417925,-0.35011 -2.72125,0.51524 -5.320793,1.56548 -7.684991,2.86024 -4.727638,2.58912 -8.518743,6.15856 -10.460736,8.39237 -6.485935,7.59841 -10.125767,12.6926 -12.252444,16.85459 -2.124261,4.15727 -2.728072,7.36656 -3.136722,11.16283 -0.407797,3.78833 0.865735,7.00195 2.242385,9.26753 1.377088,2.26629 2.858,3.58579 2.870384,3.59681 5.1e-5,4e-5 7.7e-5,7e-5 7.7e-5,7e-5 -1e-6,0 2.5e-5,-2e-5 7.5e-5,-6e-5 0.01256,-0.01 1.718824,-1.34882 3.416694,-3.81048 1.698004,-2.46185 3.390121,-6.04946 3.371827,-10.56501 0.389611,-6.51353 -1.88969,-11.98614 -3.81568,-17.79248 m 10.780558,15.93203 c -7e-6,-10e-6 -1.6e-5,-3e-5 -2.7e-5,-5e-5 -5.33e-4,-8.8e-4 -0.0061,-0.0102 -0.01634,-0.0276 -0.01023,-0.0174 -0.02511,-0.043 -0.04424,-0.0765 -0.03825,-0.067 -0.0935,-0.16552 -0.162534,-0.29359 -0.138075,-0.25614 -0.331316,-0.63039 -0.554121,-1.10633 -0.445563,-0.9518 -1.009517,-2.31068 -1.486598,-3.94472 -0.953846,-3.26702 -1.562147,-7.63979 -0.175609,-12.05975 1.331081,-4.24319 3.774003,-7.0136 5.892011,-8.72555 2.117571,-1.71159 3.906906,-2.36228 3.923088,-2.36814 7e-5,-3e-5 1.05e-4,-4e-5 1.05e-4,-4e-5 0,0 -1.1e-5,2e-5 -3.4e-5,8e-5 -0.0064,0.0146 -0.987042,2.24384 -1.171274,5.07921 -0.09214,1.418 0.0148,2.98845 0.543046,4.51096 0.528338,1.52276 1.478058,2.99774 3.07336,4.22789 3.834903,2.95713 8.170514,3.02132 11.802115,1.61105 3.631904,-1.41037 6.559011,-4.29577 7.570562,-7.25035 2.681788,-7.83303 -1.406005,-15.13222 -7.805718,-16.93526 -2.838239,-0.79963 -5.666369,-0.77391 -8.372372,-0.21102 -2.706169,0.56292 -5.28817,1.66257 -7.636118,3.00822 -4.69703,2.69194 -8.447412,6.36268 -10.370768,8.66262 -6.40896,7.8047 -10.006959,13.07088 -12.08915,17.34124 -2.084599,4.27529 -2.659718,7.56928 -3.03302,11.47057 -0.372417,3.89204 0.931599,7.19834 2.335359,9.54304 1.402774,2.34305 2.904407,3.72258 2.916633,3.7338 5.2e-5,4e-5 7.9e-5,7e-5 7.9e-5,7e-5 0,0 2.6e-5,-2e-5 7.8e-5,-6e-5 0.01461,-0.0108 1.738623,-1.28318 3.468994,-3.65559 1.729837,-2.37169 3.460487,-5.837 3.491587,-10.21035 0.460961,-6.30213 -1.754653,-11.5862 -3.606116,-17.1714 m -1.357072,-11.0817 c -2.279853,-4.30498 -5.487553,-9.06438 -7.936393,-14.48156 -2.449228,-5.41804 -4.138393,-11.49171 -3.391307,-18.41817 0.746086,-6.91718 4.212602,-12.13339 7.490478,-15.61467 3.279273,-3.48275 6.371813,-5.23283 6.386352,-5.24105 3.3e-5,-2e-5 5e-5,-2e-5 5e-5,-2e-5 -10e-7,0 1.6e-5,1e-5 4.8e-5,3e-5 8.69e-4,5.7e-4 0.0133,0.009 0.03658,0.0246 0.02327,0.0158 0.0574,0.0393 0.101645,0.0704 0.08849,0.0622 0.217508,0.15485 0.381291,0.27793 0.327552,0.24615 0.794269,0.614 1.354139,1.10293 1.119597,0.97774 2.612598,2.44044 4.11047,4.38347 2.995113,3.88524 6.01507,9.69663 6.104318,17.41463 0.08939,7.73007 -2.135542,13.7364 -5.197454,18.84485 -3.061098,5.10709 -6.958543,9.31532 -10.202771,13.42895 -9.187558,11.64967 -12.964294,26.23947 -12.973799,26.27622 -10e-6,4e-5 -1.5e-5,6e-5 -1.5e-5,6e-5 0,0 7e-6,-2e-5 2.1e-5,-6e-5 3.54e-4,-9.6e-4 0.005,-0.0137 0.01364,-0.0377 0.0086,-0.024 0.02112,-0.0593 0.03715,-0.10544 0.03206,-0.0922 0.07818,-0.2278 0.135084,-0.40287 0.113815,-0.35015 0.270817,-0.85846 0.444946,-1.49484 0.348246,-1.27273 0.765053,-3.05795 1.041786,-5.11464 0.55311,-4.11073 0.547524,-9.31681 -1.692323,-13.66592 -1.502778,-2.91794 -3.423879,-4.48117 -4.977339,-5.31389 -0.776459,-0.41621 -1.459958,-0.64939 -1.951947,-0.7787 -0.245936,-0.0646 -0.443843,-0.10328 -0.581354,-0.12584 -0.06875,-0.0113 -0.122387,-0.0185 -0.159361,-0.023 -0.03697,-0.004 -0.05728,-0.006 -0.05936,-0.006 -1.19e-4,-1e-5 -1.79e-4,-2e-5 -1.8e-4,-1e-5 0,0 9e-6,2e-5 2.9e-5,6e-5 4.45e-4,9.5e-4 0.0061,0.013 0.01615,0.0354 0.01009,0.0225 0.02466,0.0554 0.04302,0.0983 0.03673,0.0857 0.08864,0.21085 0.150266,0.37087 0.123243,0.32003 0.28538,0.7795 0.442571,1.34081 0.314346,1.12249 0.609219,2.65317 0.533432,4.29274 -0.07581,1.6401 -0.522206,3.38932 -1.693089,4.9571 -1.17128,1.5683 -3.067235,2.95548 -6.047801,3.88184 -5.920561,1.84011 -12.0619881,-0.77804 -14.532085,-6.71277 -1.4347486,-3.44718 -1.5527598,-7.13403 -0.3011149,-10.25 1.2510752,-3.11456 3.8725919,-5.66008 7.9059749,-6.8011 3.744362,-1.05925 7.227731,-0.81176 10.345833,0.16676 3.118758,0.97873 5.865304,2.68622 8.144917,4.53643 2.279309,1.84997 4.085326,3.83724 5.324914,5.36763 0.411455,0.50798 0.760133,0.96517 1.042562,1.34961 m -12.016566,10.86341 c -1.169075,1.20567 -2.878257,2.24755 -5.330358,2.95597 -5.860122,1.69298 -11.956286,-1.04821 -14.3631887,-7.14352 -1.3985171,-3.54167 -1.4828376,-7.31744 -0.198314,-10.52114 1.2845257,-3.20371 3.9378867,-5.83515 8.0128297,-7.08912 3.781561,-1.16369 7.300432,-1.00745 10.450015,-0.11918 3.149834,0.88834 5.930804,2.50891 8.238702,4.27553 2.308051,1.76673 4.142683,3.67927 5.40166,5.15218 0.62944,0.73641 1.114911,1.36283 1.443591,1.806 0.164337,0.22158 0.289489,0.39737 0.373833,0.51818 0.04217,0.0604 0.07415,0.10707 0.09572,0.13885 0.01079,0.0159 0.01897,0.0281 0.02454,0.0364 0.0055,0.008 0.0084,0.0127 0.0088,0.0132 m 5.789156,-2.24627 c -2.258812,-4.32525 -5.43991,-9.10881 -7.857645,-14.55217 -2.417582,-5.44302 -4.072677,-11.54705 -3.281166,-18.50519 0.790692,-6.95092 4.298447,-12.1955 7.613676,-15.70299 3.315427,-3.50769 6.43673,-5.277 6.451528,-5.28538 3.4e-5,-2e-5 5.1e-5,-3e-5 5.1e-5,-3e-5 0,0 1.7e-5,1e-5 4.9e-5,3e-5 8.78e-4,5.7e-4 0.01343,0.009 0.03693,0.0244 0.0235,0.0157 0.05796,0.0389 0.102642,0.0697 0.08937,0.0616 0.219662,0.1534 0.385111,0.27537 0.330897,0.24395 0.802396,0.60854 1.3684,1.09342 1.131975,0.96973 2.642012,2.42069 4.16118,4.35003 3.039139,3.85971 6.112579,9.6302 6.278775,17.30324 0.166378,7.68142 -1.992151,13.64806 -4.985135,18.71414 -2.992046,5.06448 -6.821325,9.2331 -9.997011,13.3051 -9.005432,11.54714 -12.545125,25.98486 -12.555845,26.02862 -9e-6,4e-5 -1.3e-5,6e-5 -1.3e-5,6e-5 10e-7,0 8e-6,-2e-5 2.3e-5,-6e-5 3.71e-4,-9.7e-4 0.0053,-0.0138 0.01427,-0.0381 0.009,-0.0243 0.02212,-0.0599 0.03894,-0.1065 0.03363,-0.0932 0.08203,-0.23006 0.141893,-0.40688 0.119732,-0.35366 0.285271,-0.86695 0.470097,-1.50966 0.369657,-1.28542 0.816327,-3.08804 1.12779,-5.16526 0.623106,-4.15562 0.704039,-9.40514 -1.448718,-13.80916 -1.442887,-2.9518 -3.321947,-4.54246 -4.841292,-5.3939 -0.759887,-0.42583 -1.430168,-0.66704 -1.912436,-0.80195 -0.241138,-0.0675 -0.435271,-0.10832 -0.570143,-0.13243 -0.06744,-0.0121 -0.120054,-0.0199 -0.156325,-0.0248 -0.03627,-0.005 -0.0562,-0.007 -0.05824,-0.007 -1.16e-4,-1e-5 -1.74e-4,-2e-5 -1.72e-4,-2e-5 0,0 10e-6,2e-5 3e-5,6e-5 4.66e-4,9.4e-4 0.0063,0.0128 0.01687,0.035 0.01055,0.0222 0.02579,0.0547 0.04503,0.0971 0.03848,0.0846 0.09293,0.20832 0.157776,0.36645 0.129704,0.31628 0.300962,0.77027 0.469187,1.32514 0.336531,1.11002 0.660524,2.62239 0.616371,4.24391 -0.04416,1.62187 -0.456538,3.35023 -1.589198,4.89588 -1.132449,1.54537 -2.983741,2.9063 -5.899882,3.79458 -5.789235,1.76343 -11.824706,-0.91918 -14.1444334,-6.94226 -1.3474032,-3.4985 -1.3823676,-7.23581 -0.047557,-10.40081 1.3346643,-3.16465 4.0399463,-5.75962 8.1816003,-6.9657 3.844716,-1.11962 7.418379,-0.92572 10.624432,-3.8e-4 3.205476,0.92518 6.041848,2.58136 8.402344,4.38132 2.36017,1.79971 4.243921,3.7428 5.53918,5.23803 0.64761,0.74759 1.148093,1.38322 1.487247,1.83279 0.169579,0.22479 0.298836,0.40308 0.385989,0.5256 0.04358,0.0613 0.07663,0.10858 0.09893,0.14081 0.01115,0.0161 0.01962,0.0284 0.02537,0.0369 0.0057,0.008 0.0087,0.0128 0.0091,0.0134 m 8.703867,0.56587 c -2.223243,-4.33253 -5.368492,-9.12876 -7.757126,-14.59184 -2.388564,-5.46291 -4.020663,-11.59269 -3.213235,-18.58839 0.806574,-6.98828 4.318295,-12.27377 7.633786,-15.81738 3.315308,-3.54342 6.432609,-5.34305 6.447369,-5.35156 3.4e-5,-2e-5 5e-5,-3e-5 5e-5,-3e-5 1e-6,0 1.7e-5,1e-5 5e-5,3e-5 8.77e-4,5.6e-4 0.01341,0.009 0.03689,0.024 0.02347,0.0155 0.05789,0.0384 0.102518,0.0687 0.08926,0.0607 0.219387,0.15116 0.384617,0.27141 0.330469,0.24049 0.801281,0.60002 1.366349,1.07849 1.130158,0.95697 2.636986,2.38944 4.151411,4.29606 3.028863,3.81325 6.087138,9.52275 6.222609,17.10891 0.135603,7.59354 -2.055439,13.48163 -5.083513,18.46616 -3.029058,4.98615 -6.893283,9.0654 -10.109851,13.05809 -9.105911,11.30305 -12.803931,25.49577 -12.809577,25.51746 -10e-6,4e-5 -1.4e-5,6e-5 -1.4e-5,6e-5 0,-10e-6 7e-6,-3e-5 2.2e-5,-7e-5 3.6e-4,-9.9e-4 0.0051,-0.0141 0.01387,-0.0389 0.0088,-0.0248 0.02149,-0.0611 0.03782,-0.1087 0.03264,-0.0951 0.07961,-0.23481 0.137622,-0.41526 0.116014,-0.3609 0.276203,-0.88479 0.454298,-1.54062 0.356193,-1.31168 0.784054,-3.15131 1.073564,-5.27122 0.579202,-4.24116 0.60455,-9.5989 -1.60315,-14.10962 -1.480152,-3.02422 -3.387322,-4.66967 -4.927518,-5.56169 -0.770169,-0.44606 -1.449215,-0.70399 -1.937422,-0.85066 -0.244148,-0.0733 -0.44071,-0.11891 -0.577227,-0.14626 -0.06826,-0.0137 -0.12153,-0.0228 -0.158243,-0.0286 -0.03671,-0.006 -0.05688,-0.008 -0.05895,-0.008 -1.18e-4,-2e-5 -1.77e-4,-3e-5 -1.77e-4,-3e-5 0,0 10e-6,2e-5 2.9e-5,6e-5 4.54e-4,9.2e-4 0.0062,0.0125 0.01641,0.0341 0.01026,0.0216 0.02507,0.0533 0.04376,0.0946 0.03737,0.0825 0.09022,0.20303 0.153033,0.35719 0.125632,0.30833 0.291118,0.75106 0.452391,1.29235 0.322526,1.0825 0.628198,2.55934 0.564156,4.14174 -0.06401,1.58174 -0.497785,3.27055 -1.654292,4.76803 -1.156362,1.49729 -3.036179,2.80394 -5.991855,3.6128 -5.868752,1.60606 -11.9723,-1.21399 -14.380648,-7.41681 -1.3998866,-3.60549 -1.4837432,-7.44312 -0.1977293,-10.70957 1.2864573,-3.26757 3.9418883,-5.96137 8.0225903,-7.29972 3.785978,-1.2417 7.312511,-1.15506 10.468344,-0.33625 3.155859,0.81883 5.946919,2.37146 8.262322,4.07258 2.315892,1.70147 4.160475,3.5548 5.42572,4.98221 0.632837,0.71395 1.121254,1.32193 1.451967,1.75216 0.165367,0.21513 0.291323,0.38584 0.376226,0.50319 0.04245,0.0587 0.07464,0.10402 0.09636,0.13489 0.01086,0.0154 0.0191,0.0273 0.0247,0.0353 0.0055,0.008 0.0085,0.0123 0.0088,0.0128 m 5.554243,-0.84351 c -2.239306,-4.32946 -5.400783,-9.11629 -7.802656,-14.56061 -2.401721,-5.44397 -4.044444,-11.54684 -3.244397,-18.50071 0.799241,-6.94686 4.308739,-12.18424 7.62394,-15.68545 3.315316,-3.50132 6.43381,-5.26432 6.448787,-5.27278 3.3e-5,-2e-5 5e-5,-3e-5 5e-5,-3e-5 1e-6,0 1.7e-5,1e-5 5e-5,3e-5 8.76e-4,5.7e-4 0.01342,0.009 0.0369,0.0245 0.02349,0.0157 0.05792,0.0391 0.102568,0.0699 0.0893,0.0618 0.219499,0.15385 0.384811,0.27617 0.330621,0.24463 0.801742,0.61025 1.36717,1.09643 1.130831,0.97234 2.639093,2.4271 4.15544,4.3613 3.033136,3.86897 6.097893,9.6543 6.246573,17.34709 0.148857,7.70194 -2.028063,13.68814 -5.040892,18.77426 -3.012055,5.08482 -6.862875,9.27421 -10.060698,13.36733 -9.064904,11.60278 -12.68803,26.11775 -12.698712,26.16058 -9e-6,4e-5 -1.4e-5,6e-5 -1.4e-5,6e-5 0,0 8e-6,-2e-5 2.3e-5,-6e-5 3.65e-4,-9.7e-4 0.0052,-0.0138 0.01405,-0.0379 0.0089,-0.0241 0.02177,-0.0596 0.03831,-0.10592 0.03308,-0.0927 0.08067,-0.22883 0.13949,-0.4047 0.117643,-0.35176 0.280167,-0.86233 0.461209,-1.50159 0.362087,-1.27855 0.798168,-3.07161 1.097286,-5.13764 0.598186,-4.13171 0.648308,-9.35619 -1.535572,-13.73074 -1.464302,-2.93315 -3.35825,-4.50898 -4.889779,-5.35008 -0.765798,-0.42057 -1.44075,-0.65739 -1.926487,-0.78923 -0.242845,-0.0659 -0.438315,-0.10557 -0.574127,-0.12883 -0.0679,-0.0116 -0.120882,-0.0192 -0.157403,-0.0238 -0.03652,-0.005 -0.05658,-0.006 -0.05864,-0.007 -1.17e-4,-1e-5 -1.76e-4,-2e-5 -1.75e-4,-1e-5 0,0 10e-6,2e-5 3e-5,6e-5 4.59e-4,9.5e-4 0.0062,0.0129 0.01661,0.0352 0.01039,0.0223 0.02539,0.0551 0.04432,0.0977 0.03785,0.0852 0.09141,0.2097 0.155109,0.36887 0.127409,0.31833 0.295431,0.7753 0.459742,1.3337 0.32866,1.11692 0.642341,2.63909 0.587009,4.27054 -0.05535,1.63195 -0.47971,3.37138 -1.625804,4.92919 -1.146113,1.55783 -3.013013,2.93297 -5.951606,3.84183 -5.834905,1.80464 -11.906769,-0.84307 -14.2773044,-6.81945 -1.376839,-3.47118 -1.4394988,-7.18217 -0.1320586,-10.32143 1.307091,-3.13842 3.985198,-5.7078 8.092093,-6.88035 3.81273,-1.08855 7.357682,-0.86737 10.536533,0.0849 3.178637,0.9522 5.987262,2.63426 8.323455,4.45918 2.335764,1.82458 4.196346,3.78979 5.47523,5.30215 0.639306,0.75602 1.132938,1.39851 1.467356,1.85292 0.167205,0.2272 0.2946,0.40738 0.380485,0.53119 0.04294,0.0619 0.07551,0.10973 0.09748,0.14229 0.01099,0.0163 0.01933,0.0288 0.02499,0.0373 0.0056,0.008 0.0086,0.013 0.0089,0.0135 m 2.463726,-3.12177 c -2.237009,-4.344 -5.393955,-9.15046 -7.788241,-14.61947 -2.393959,-5.46826 -4.026667,-11.60121 -3.211269,-18.59294 0.814632,-6.98514 4.340568,-12.26128 7.670968,-15.79622 3.329898,-3.5344 6.461514,-5.32495 6.476309,-5.3334 3.4e-5,-2e-5 5.1e-5,-3e-5 5.2e-5,-3e-5 0,0 1.6e-5,1e-5 4.9e-5,3e-5 8.81e-4,5.6e-4 0.01347,0.009 0.03706,0.0241 0.02359,0.0155 0.05816,0.0385 0.102999,0.069 0.08969,0.061 0.22043,0.15182 0.386469,0.27258 0.332089,0.24153 0.805264,0.60257 1.373396,1.08301 1.136307,0.96091 2.65201,2.39908 4.17802,4.31324 3.053109,3.82969 6.142452,9.5583 6.328284,17.17869 0.185992,7.62692 -1.957849,13.54725 -4.936083,18.56521 -2.977965,5.0175 -6.792747,9.1366 -9.955997,13.16235 -8.969443,11.41504 -12.472232,25.70246 -12.481641,25.74087 -9e-6,4e-5 -1.3e-5,6e-5 -1.3e-5,6e-5 10e-7,0 8e-6,-2e-5 2.4e-5,-6e-5 3.73e-4,-9.8e-4 0.0053,-0.014 0.01438,-0.0385 0.0091,-0.0245 0.0223,-0.0606 0.03924,-0.10773 0.03389,-0.0942 0.08269,-0.2327 0.143052,-0.41155 0.120736,-0.35771 0.287728,-0.87688 0.474366,-1.52692 0.373286,-1.30012 0.825008,-3.12325 1.142316,-5.22428 0.63504,-4.20488 0.730153,-9.51128 -1.407872,-13.97626 -1.432597,-2.99178 -3.305115,-4.61345 -4.818464,-5.48719 -0.757026,-0.43708 -1.425228,-0.68761 -1.905785,-0.82905 -0.240321,-0.0707 -0.433834,-0.11422 -0.568253,-0.14013 -0.06721,-0.0129 -0.119661,-0.0215 -0.155812,-0.0269 -0.03615,-0.005 -0.05602,-0.008 -0.05806,-0.008 -1.16e-4,-1e-5 -1.73e-4,-2e-5 -1.71e-4,-2e-5 0,0 1.1e-5,2e-5 3.1e-5,6e-5 4.69e-4,9.3e-4 0.0064,0.0126 0.01699,0.0345 0.01063,0.0219 0.02598,0.054 0.04537,0.0957 0.03877,0.0834 0.09365,0.20538 0.159044,0.3613 0.130796,0.31188 0.303588,0.75956 0.473681,1.30689 0.34028,1.09496 0.669202,2.58702 0.630424,4.187 -0.03878,1.59989 -0.445371,3.30543 -1.571476,4.82458 -1.125669,1.51856 -2.96954,2.84912 -5.874379,3.69299 -5.765805,1.67501 -11.7837896,-1.08404 -14.0757678,-7.20885 -1.3316543,-3.55857 -1.351254,-7.35325 -0.001,-10.57554 1.3505149,-3.22293 4.071059,-5.87447 8.233802,-7.156 3.863423,-1.18938 7.456024,-1.05714 10.678947,-0.19311 3.222042,0.86379 6.077909,2.46037 8.454301,4.20288 2.376349,1.74248 4.277024,3.63384 5.583589,5.08925 0.653505,0.72794 1.15894,1.34746 1.501501,1.78571 0.171296,0.21914 0.301897,0.393 0.389972,0.5125 0.04404,0.0598 0.07744,0.10592 0.09999,0.13735 0.01127,0.0157 0.01983,0.0278 0.02565,0.036 0.0058,0.008 0.0088,0.0125 0.0092,0.013 m 4.30496,-0.0464 c -2.209088,-4.37459 -5.336265,-9.2133 -7.703521,-14.71097 -2.366785,-5.49657 -3.975328,-11.65549 -3.136855,-18.66962 0.837752,-7.00808 4.378438,-12.29758 7.720294,-15.84255 3.340703,-3.54374 6.478586,-5.33899 6.493421,-5.34747 3.4e-5,-2e-5 5.1e-5,-3e-5 5.1e-5,-3e-5 10e-7,0 1.7e-5,1e-5 5e-5,3e-5 8.83e-4,5.6e-4 0.0135,0.009 0.03714,0.0241 0.02363,0.0155 0.05829,0.0384 0.103224,0.0688 0.08988,0.0608 0.220916,0.15146 0.38732,0.27193 0.332817,0.24097 0.807055,0.60123 1.376447,1.08074 1.138892,0.95911 2.657862,2.39482 4.187368,4.30691 3.060115,3.82557 6.156402,9.55069 6.34674,17.17281 0.190494,7.6284 -1.953081,13.55468 -4.931868,18.57925 -2.978676,5.02438 -6.796086,9.15279 -9.962559,13.18828 -8.978603,11.4427 -12.50024,25.77141 -12.509921,25.81084 -9e-6,3e-5 -1.3e-5,5e-5 -1.3e-5,5e-5 1e-6,0 9e-6,-2e-5 2.4e-5,-6e-5 3.72e-4,-9.8e-4 0.0053,-0.0139 0.01433,-0.0384 0.009,-0.0245 0.02222,-0.0604 0.0391,-0.1074 0.03377,-0.094 0.08238,-0.23201 0.142506,-0.41032 0.120262,-0.35664 0.286568,-0.87425 0.472339,-1.52234 0.371558,-1.29622 0.820833,-3.11384 1.135263,-5.20847 0.6292,-4.19151 0.717058,-9.4826 -1.428377,-13.93088 -1.437717,-2.98092 -3.31366,-4.59415 -4.829914,-5.46188 -0.758427,-0.43404 -1.427697,-0.68206 -1.909078,-0.82174 -0.240722,-0.0699 -0.434543,-0.11263 -0.569184,-0.13806 -0.06732,-0.0127 -0.119854,-0.0211 -0.156064,-0.0263 -0.03621,-0.005 -0.05611,-0.007 -0.05815,-0.008 -1.17e-4,-1e-5 -1.74e-4,-2e-5 -1.73e-4,-2e-5 1e-6,0 1.1e-5,2e-5 3.1e-5,6e-5 4.68e-4,9.4e-4 0.0063,0.0127 0.01693,0.0346 0.01059,0.022 0.02589,0.0542 0.0452,0.0961 0.03863,0.0838 0.0933,0.20616 0.158422,0.36268 0.130261,0.31306 0.3023,0.76244 0.471484,1.31179 0.338452,1.09898 0.664989,2.5965 0.623651,4.20218 -0.04134,1.6057 -0.450655,3.31732 -1.579775,4.84338 -1.128746,1.52556 -2.97606,2.86405 -5.885771,3.71925 -5.775621,1.69754 -11.8011164,-1.04261 -14.1027321,-7.14345 -1.3371903,-3.54448 -1.3617253,-7.32613 -0.016035,-10.53584 1.3458894,-3.21018 4.0622298,-5.84958 8.2200118,-7.11583 3.859063,-1.17528 7.4478,-1.03116 10.667805,-0.1558 3.219103,0.87512 6.072098,2.48222 8.446541,4.23439 2.374271,1.75203 4.273404,3.65179 5.578992,5.11328 0.653015,0.73099 1.158076,1.35294 1.500398,1.7929 0.171176,0.21999 0.30168,0.39451 0.389695,0.51447 0.04401,0.06 0.07739,0.10631 0.09992,0.13786 0.01126,0.0158 0.01982,0.0279 0.02563,0.0361 0.0058,0.008 0.0088,0.0126 0.0092,0.0131 m 6.039204,3.81825 c -2.229363,-4.36427 -5.381621,-9.19271 -7.777427,-14.6823 -2.395824,-5.48963 -4.035046,-11.64022 -3.235825,-18.65174 0.798289,-7.00333 4.30339,-12.29486 7.612972,-15.83966 3.309317,-3.54451 6.423177,-5.34219 6.437536,-5.35047 3.4e-5,-2e-5 5.1e-5,-3e-5 5.1e-5,-3e-5 0,0 1.6e-5,1e-5 4.9e-5,3e-5 8.75e-4,5.6e-4 0.01339,0.009 0.03684,0.0241 0.02344,0.0155 0.05781,0.0384 0.102372,0.0688 0.08913,0.0607 0.219075,0.15132 0.384061,0.27168 0.329975,0.24074 0.800108,0.60068 1.364287,1.07973 1.128392,0.95814 2.63278,2.39259 4.144281,4.30258 3.022807,3.81972 6.07396,9.54185 6.199864,17.15099 0.126044,7.6176 -2.072781,13.5308 -5.108818,18.54347 -3.036657,5.01369 -6.909216,9.12463 -10.133,13.14824 -9.127132,11.3916 -12.848058,25.69641 -12.854694,25.72195 -1e-5,4e-5 -1.4e-5,6e-5 -1.4e-5,6e-5 -1e-6,0 7e-6,-2e-5 2.1e-5,-7e-5 3.58e-4,-9.8e-4 0.0051,-0.014 0.0138,-0.0385 0.0087,-0.0246 0.02139,-0.0606 0.03763,-0.10779 0.03248,-0.0943 0.0792,-0.23286 0.136896,-0.41181 0.115386,-0.3579 0.274665,-0.87745 0.451624,-1.52785 0.353918,-1.30081 0.778605,-3.12521 1.064432,-5.22739 0.571684,-4.20457 0.588056,-9.51954 -1.628964,-13.98473 -1.486696,-2.99428 -3.397929,-4.61658 -4.941943,-5.49196 -0.771985,-0.43767 -1.452321,-0.68865 -1.941618,-0.83045 -0.244663,-0.0709 -0.441613,-0.11452 -0.578417,-0.14053 -0.0684,-0.013 -0.121777,-0.0216 -0.158566,-0.027 -0.03679,-0.005 -0.05699,-0.008 -0.05906,-0.008 -1.18e-4,-2e-5 -1.77e-4,-2e-5 -1.77e-4,-2e-5 -1e-6,0 9e-6,2e-5 2.9e-5,6e-5 4.51e-4,9.2e-4 0.0061,0.0126 0.01634,0.0345 0.01021,0.0219 0.02495,0.0539 0.04355,0.0956 0.03719,0.0834 0.08976,0.20522 0.152236,0.36103 0.124943,0.31161 0.289464,0.75903 0.449562,1.30592 0.32017,1.0937 0.622738,2.58561 0.555329,4.18395 -0.06739,1.59802 -0.504777,3.30366 -1.665377,4.82064 -1.160591,1.51696 -3.045026,2.84594 -6.007698,3.68708 -5.883212,1.67031 -11.9974973,-1.09493 -14.422576,-7.22632 -1.4093736,-3.56336 -1.5024005,-7.36135 -0.2255167,-10.58872 1.2770992,-3.22791 3.9235487,-5.88349 7.9920317,-7.17204 3.775245,-1.19568 7.29071,-1.06911 10.437073,-0.2112 3.146477,0.85793 5.926507,2.44794 8.233079,4.18446 2.306828,1.73671 4.142132,3.62145 5.401127,5.07266 0.629598,0.72572 1.115297,1.34328 1.444147,1.78024 0.164428,0.21848 0.289647,0.39182 0.374047,0.51096 0.0422,0.0596 0.07419,0.1056 0.09578,0.13694 0.01079,0.0157 0.01899,0.0277 0.02455,0.0359 0.0055,0.008 0.0084,0.0125 0.0088,0.013 m 6.470555,-3.77389 c -2.270669,-4.40099 -5.465069,-9.26553 -7.895981,-14.78283 -2.430955,-5.5174 -4.098689,-11.68783 -3.321318,-18.71017 0.776368,-7.01325 4.273513,-12.30354 7.57913,-15.84181 3.305373,-3.538 6.422293,-5.32701 6.436,-5.33487 3.4e-5,-2e-5 5.1e-5,-3e-5 5.1e-5,-3e-5 0,0 1.6e-5,1e-5 4.9e-5,3e-5 8.75e-4,5.6e-4 0.0134,0.009 0.03685,0.0242 0.02345,0.0155 0.05783,0.0386 0.102416,0.0691 0.08917,0.061 0.219176,0.15199 0.384247,0.27289 0.330142,0.24178 0.800569,0.60329 1.365215,1.08443 1.129316,0.9623 2.635488,2.40314 4.150311,4.3221 3.030049,3.83842 6.092904,9.58721 6.245579,17.24366 0.152859,7.66572 -2.016265,13.62591 -5.019945,18.69021 -3.002739,5.06272 -6.841952,9.2333 -10.027478,13.31024 -9.031436,11.55869 -12.602613,26.03606 -12.613124,26.0787 -9e-6,4e-5 -1.4e-5,6e-5 -1.3e-5,6e-5 0,0 8e-6,-2e-5 2.3e-5,-6e-5 3.68e-4,-9.7e-4 0.0052,-0.0138 0.01419,-0.038 0.009,-0.0242 0.02199,-0.0598 0.0387,-0.10622 0.03342,-0.0929 0.08152,-0.22947 0.140986,-0.40584 0.118944,-0.35275 0.283347,-0.86474 0.466751,-1.50579 0.366809,-1.28209 0.80952,-3.08006 1.116387,-5.1517 0.613821,-4.14386 0.683404,-9.38026 -1.480848,-13.76941 -1.450811,-2.94228 -3.335348,-4.5255 -4.859231,-5.37174 -0.762085,-0.42319 -1.434092,-0.66222 -1.917655,-0.7956 -0.241773,-0.0667 -0.436402,-0.10695 -0.571625,-0.13065 -0.06761,-0.0118 -0.120362,-0.0195 -0.156726,-0.0243 -0.03636,-0.005 -0.05634,-0.007 -0.05839,-0.007 -1.17e-4,-1e-5 -1.75e-4,-1e-5 -1.74e-4,-1e-5 10e-7,0 1.1e-5,2e-5 3.1e-5,6e-5 4.63e-4,9.5e-4 0.0063,0.0128 0.01677,0.0351 0.01049,0.0223 0.02564,0.0549 0.04476,0.0974 0.03824,0.0849 0.09236,0.209 0.156783,0.36765 0.128848,0.3173 0.298901,0.77276 0.465665,1.32936 0.333593,1.11343 0.653729,2.63054 0.605374,4.25684 -0.04837,1.62673 -0.465264,3.36029 -1.603027,4.91159 -1.137608,1.55109 -2.994915,2.91858 -5.919698,3.81578 -5.806863,1.78128 -11.8568292,-0.88757 -14.1972313,-6.89451 -1.3594595,-3.48924 -1.4059933,-7.2185 -0.082876,-10.3766 1.3229814,-3.15779 4.0162448,-5.74636 8.1424378,-6.94626 3.830353,-1.11387 7.390798,-0.91624 10.584002,0.0118 3.192644,0.92784 6.015936,2.58539 8.364218,4.38573 2.347947,1.80008 4.22022,3.74243 5.506884,5.23669 0.643328,0.74712 1.140253,1.38222 1.476933,1.83142 0.168341,0.2246 0.296621,0.40273 0.383111,0.52514 0.04324,0.0612 0.07604,0.10849 0.09817,0.14069 0.01107,0.0161 0.01947,0.0284 0.02517,0.0368 0.0057,0.008 0.0087,0.0128 0.009,0.0133 m 4.831695,2.71956 c -2.23969,-4.37001 -5.402446,-9.20742 -7.806933,-14.70989 -2.404548,-5.50261 -4.050675,-11.66946 -3.256722,-18.70395 0.792978,-7.02584 4.296486,-12.34254 7.605255,-15.9085 3.308422,-3.56559 6.423547,-5.38148 6.437597,-5.38966 3.4e-5,-2e-5 5e-5,-3e-5 5.1e-5,-3e-5 0,0 1.6e-5,1e-5 4.9e-5,3e-5 8.75e-4,5.6e-4 0.0134,0.008 0.03684,0.0238 0.02345,0.0153 0.05781,0.038 0.10239,0.0682 0.08915,0.0602 0.219112,0.14999 0.384134,0.26934 0.330057,0.23871 0.800265,0.59566 1.364621,1.07094 1.128761,0.95062 2.633619,2.37421 4.146156,4.27087 3.024967,3.79319 6.079402,9.47831 6.212629,17.0377 0.133358,7.56682 -2.057512,13.43417 -5.084897,18.40001 -3.028445,4.96759 -6.890452,9.02889 -10.104938,13.00599 -9.099166,11.25785 -12.785818,25.40901 -12.79089,25.4285 -1e-5,3e-5 -1.4e-5,5e-5 -1.4e-5,5e-5 0,0 7e-6,-2e-5 2.2e-5,-6e-5 3.61e-4,-10e-4 0.0051,-0.0141 0.0139,-0.039 0.0088,-0.0248 0.02155,-0.0613 0.03791,-0.10905 0.03272,-0.0954 0.07981,-0.23558 0.137974,-0.41662 0.116321,-0.36207 0.276954,-0.88765 0.455608,-1.5456 0.35731,-1.31591 0.786753,-3.16144 1.078115,-5.28813 0.582975,-4.25521 0.612954,-9.62898 -1.589991,-14.15692 -1.476838,-3.0355 -3.381892,-4.68974 -4.920193,-5.5881 -0.769264,-0.44925 -1.447647,-0.70984 -1.935318,-0.85837 -0.243891,-0.0743 -0.440257,-0.12059 -0.576632,-0.14844 -0.06819,-0.0139 -0.121406,-0.0232 -0.158082,-0.0291 -0.03668,-0.006 -0.05682,-0.008 -0.05889,-0.009 -1.17e-4,-1e-5 -1.76e-4,-2e-5 -1.76e-4,-3e-5 0,0 9e-6,2e-5 2.9e-5,6e-5 4.54e-4,9.2e-4 0.0062,0.0124 0.01645,0.034 0.01028,0.0215 0.02514,0.0531 0.04387,0.0942 0.03747,0.0821 0.09044,0.20219 0.153431,0.35572 0.125974,0.30708 0.291941,0.748 0.453795,1.28713 0.323693,1.07821 0.630891,2.54922 0.568484,4.12541 -0.06237,1.57541 -0.49441,3.25762 -1.648989,4.74738 -1.154351,1.48945 -3.032057,2.78725 -5.98457,3.58291 -5.862296,1.57981 -11.9613777,-1.2636 -14.363346,-7.49836 -1.3963318,-3.62445 -1.4769741,-7.48053 -0.1880117,-10.76582 1.2895625,-3.28683 3.9475321,-5.99939 8.0315967,-7.36373 3.788744,-1.2657 7.318053,-1.20085 10.475747,-0.40407 3.157603,0.79675 5.951091,2.32744 8.267622,4.00706 2.317155,1.68007 4.163219,3.51356 5.429003,4.9256 0.633195,0.70636 1.1219,1.30806 1.452792,1.73387 0.165461,0.21293 0.291487,0.38191 0.376438,0.49808 0.04248,0.0581 0.07468,0.10296 0.09641,0.13353 0.01087,0.0153 0.01911,0.027 0.02472,0.035 0.0056,0.008 0.0085,0.0122 0.0088,0.0127 m 8.767006,3.99504 c -2.260342,-4.36312 -5.443845,-9.18871 -7.865052,-14.67302 -2.421194,-5.48427 -4.080454,-11.6275 -3.295277,-18.62767 0.784246,-6.99184 4.285866,-12.271 7.594999,-15.80419 3.309069,-3.53313 6.426686,-5.32131 6.440878,-5.32945 3.3e-5,-1e-5 5e-5,-2e-5 5e-5,-2e-5 0,0 1.7e-5,1e-5 5e-5,3e-5 8.76e-4,5.6e-4 0.01341,0.009 0.03687,0.0242 0.02347,0.0155 0.05786,0.0386 0.102476,0.0691 0.08923,0.061 0.219303,0.15203 0.384474,0.27296 0.330344,0.24184 0.801032,0.60339 1.36601,1.0845 1.129962,0.96223 2.636978,2.40262 4.152552,4.31994 3.031566,3.83515 6.095627,9.57616 6.247908,17.21416 0.152449,7.6465 -2.018437,13.58528 -5.024291,18.62498 -3.005411,5.03896 -6.846719,9.18061 -10.035899,13.22993 -9.038879,11.47671 -12.626944,25.85458 -12.636196,25.89169 -9e-6,3e-5 -1.4e-5,5e-5 -1.4e-5,5e-5 10e-7,0 8e-6,-2e-5 2.3e-5,-6e-5 3.68e-4,-9.8e-4 0.0052,-0.0139 0.01415,-0.0383 0.0089,-0.0244 0.02193,-0.0602 0.03859,-0.10706 0.03332,-0.0937 0.08128,-0.23128 0.140576,-0.40903 0.118587,-0.3555 0.282477,-0.8715 0.465231,-1.51755 0.365511,-1.2921 0.806405,-3.10414 1.111136,-5.19214 0.609632,-4.17715 0.67361,-9.45404 -1.495957,-13.88475 -1.45431,-2.97001 -3.34192,-4.57443 -4.867686,-5.43612 -0.763048,-0.43094 -1.436001,-0.67637 -1.920101,-0.81424 -0.242063,-0.0689 -0.436939,-0.111 -0.572317,-0.13593 -0.06769,-0.0125 -0.120507,-0.0206 -0.156914,-0.0258 -0.03641,-0.005 -0.05641,-0.007 -0.05846,-0.007 -1.17e-4,-1e-5 -1.75e-4,-1e-5 -1.74e-4,-1e-5 0,0 1.1e-5,2e-5 3.1e-5,6e-5 4.62e-4,9.3e-4 0.0063,0.0127 0.01673,0.0348 0.01046,0.0221 0.02557,0.0544 0.04464,0.0964 0.03814,0.0841 0.0921,0.20698 0.156319,0.36411 0.128453,0.31427 0.297938,0.76541 0.464025,1.31684 0.332226,1.10302 0.650579,2.60641 0.600291,4.21794 -0.05029,1.61162 -0.469272,3.32993 -1.60933,4.86317 -1.139861,1.53299 -3.00002,2.87998 -5.928517,3.74755 -5.814157,1.72245 -11.8710518,-0.99671 -14.2192684,-7.06857 -1.3642672,-3.52764 -1.4151176,-7.29267 -0.096312,-10.48618 1.3188618,-3.19365 4.0076044,-5.81662 8.1287964,-7.06121 3.82506,-1.15517 7.382437,-0.9931 10.571274,-0.0999 3.1884,0.8931 6.00883,2.51753 8.353423,4.2867 2.344509,1.76911 4.214195,3.68378 5.498607,5.15731 0.642272,0.73683 1.138367,1.36356 1.474451,1.8069 0.168046,0.22168 0.296099,0.39752 0.382432,0.51837 0.04317,0.0604 0.0759,0.10711 0.098,0.1389 0.01105,0.0159 0.01943,0.0281 0.02513,0.0364 0.0056,0.008 0.0086,0.0127 0.009,0.0132 m 8.300257,-5.83809 c -2.213682,-4.31071 -5.34941,-9.07659 -7.730525,-14.50025 -2.380957,-5.4233 -4.007564,-11.50587 -3.196506,-18.4381 0.810304,-6.92578 4.321758,-12.14458 7.636731,-15.63218 3.315185,-3.48781 6.429291,-5.24035 6.444746,-5.24903 3.4e-5,-2e-5 5.1e-5,-3e-5 5.1e-5,-3e-5 0,0 1.6e-5,10e-6 4.9e-5,3e-5 8.75e-4,5.7e-4 0.0134,0.009 0.03687,0.0246 0.02346,0.0158 0.05786,0.0392 0.102461,0.0703 0.08921,0.0621 0.219268,0.1546 0.384393,0.27749 0.330238,0.24576 0.80082,0.61305 1.365451,1.10128 1.129226,0.97643 2.635056,2.43698 4.147524,4.37782 3.024922,3.88165 6.077833,9.68517 6.202841,17.39715 0.125167,7.72184 -2.076533,13.72456 -5.116096,18.82621 -3.039181,5.101 -6.918633,9.30448 -10.146421,13.41243 -9.144305,11.63781 -12.880895,26.20578 -12.890926,26.24494 -9e-6,3e-5 -1.4e-5,5e-5 -1.4e-5,5e-5 -10e-7,0 7e-6,-2e-5 2.1e-5,-5e-5 3.57e-4,-9.7e-4 0.0051,-0.0137 0.01375,-0.0378 0.0087,-0.024 0.02129,-0.0594 0.03746,-0.10557 0.03233,-0.0924 0.07884,-0.22808 0.136256,-0.40337 0.114832,-0.35058 0.273298,-0.85951 0.449247,-1.49667 0.351899,-1.27433 0.773729,-3.06163 1.056232,-5.12088 0.56472,-4.11642 0.573203,-9.32749 -1.652518,-13.68348 -1.493046,-2.92207 -3.407257,-4.4887 -4.955103,-5.32369 -0.773733,-0.41739 -1.45504,-0.65155 -1.945422,-0.78155 -0.245141,-0.065 -0.442421,-0.10389 -0.579495,-0.12664 -0.06853,-0.0114 -0.121999,-0.0187 -0.158857,-0.0232 -0.03685,-0.005 -0.0571,-0.006 -0.05917,-0.006 -1.18e-4,-1e-5 -1.78e-4,-2e-5 -1.78e-4,-2e-5 0,1e-5 9e-6,3e-5 2.9e-5,7e-5 4.49e-4,9.5e-4 0.0061,0.0129 0.01627,0.0354 0.01016,0.0224 0.02484,0.0553 0.04335,0.0981 0.03702,0.0855 0.08935,0.21053 0.151515,0.37032 0.124318,0.31957 0.287975,0.77837 0.447012,1.33889 0.318054,1.12098 0.617827,2.64938 0.547424,4.28675 -0.07043,1.63791 -0.510964,3.38449 -1.67517,4.94958 -1.164506,1.5655 -3.05254,2.94942 -6.021393,3.87109 -5.896377,1.83052 -12.01773,-0.79539 -14.4567687,-6.74129 -1.4166525,-3.45354 -1.5167226,-7.14687 -0.2463442,-10.26899 1.2698587,-3.12083 3.9110149,-5.67276 7.9708979,-6.82205 3.769145,-1.06698 7.275662,-0.8264 10.417363,0.14522 3.142022,0.97173 5.913392,2.67264 8.216369,4.51621 2.302535,1.84321 4.131782,3.82497 5.388321,5.35054 0.628009,0.76247 1.112333,1.41024 1.440306,1.8684 0.163973,0.22906 0.28884,0.4107 0.372997,0.53551 0.04208,0.0624 0.07398,0.11061 0.09551,0.14343 0.01076,0.0164 0.01893,0.029 0.02448,0.0376 0.0055,0.008 0.0084,0.0131 0.0088,0.0136 m 8.168334,-1.32078 c -2.261111,-4.35432 -5.44801,-9.16916 -7.876598,-14.64142 -2.428838,-5.47282 -4.098585,-11.60167 -3.330743,-18.58646 0.766827,-6.97555 4.249396,-12.24032 7.540487,-15.7604 3.29156,-3.52057 6.39397,-5.29878 6.408111,-5.30688 3.4e-5,-2e-5 5e-5,-3e-5 5e-5,-3e-5 0,0 1.6e-5,1e-5 4.9e-5,3e-5 8.71e-4,5.7e-4 0.01334,0.009 0.03669,0.0243 0.02335,0.0156 0.05757,0.0388 0.101959,0.0694 0.08877,0.0613 0.218185,0.15278 0.382487,0.27427 0.328599,0.24297 0.796794,0.6062 1.358538,1.08939 1.123444,0.96634 2.621379,2.41279 4.125327,4.33722 3.00744,3.84826 6.041528,9.61094 6.148273,17.27268 0.106892,7.67222 -2.104849,13.6325 -5.15348,18.69493 -3.048426,5.06209 -6.932741,9.22487 -10.165703,13.29698 -9.154882,11.53113 -12.897994,25.99483 -12.906265,26.02682 -9e-6,3e-5 -1.4e-5,5e-5 -1.4e-5,5e-5 0,0 7e-6,-2e-5 2.2e-5,-6e-5 3.56e-4,-9.7e-4 0.0051,-0.0138 0.01373,-0.0381 0.0087,-0.0242 0.02127,-0.0599 0.03743,-0.10648 0.03231,-0.0932 0.07877,-0.23003 0.136141,-0.40683 0.114731,-0.35358 0.27306,-0.86686 0.448843,-1.50944 0.351558,-1.28515 0.772977,-3.08768 1.055047,-5.16443 0.563969,-4.15224 0.57141,-9.40599 -1.655022,-13.80631 -1.493386,-2.95152 -3.408506,-4.54081 -4.956497,-5.39231 -0.773852,-0.42567 -1.455445,-0.6667 -1.945877,-0.80152 -0.245191,-0.0674 -0.442531,-0.10824 -0.579629,-0.13232 -0.06855,-0.012 -0.122029,-0.0199 -0.158894,-0.0248 -0.03687,-0.005 -0.05711,-0.007 -0.05919,-0.007 -1.18e-4,-10e-6 -1.78e-4,-2e-5 -1.78e-4,-10e-6 0,0 9e-6,2e-5 2.8e-5,6e-5 4.49e-4,9.4e-4 0.0061,0.0128 0.01626,0.035 0.01016,0.0222 0.02483,0.0548 0.04333,0.0971 0.037,0.0846 0.0893,0.20837 0.151422,0.36653 0.124241,0.31631 0.287778,0.77046 0.446673,1.32541 0.317762,1.10979 0.617141,2.62331 0.546251,4.24466 -0.0709,1.62151 -0.512026,3.35138 -1.676932,4.89664 -1.165094,1.54551 -3.054301,2.90686 -6.024569,3.79522 -5.899186,1.76435 -12.024805,-0.91972 -14.4696619,-6.94344 -1.4204501,-3.49977 -1.5245355,-7.23725 -0.2589018,-10.40419 1.2654483,-3.16648 3.9007487,-5.76255 7.9532117,-6.97192 3.761302,-1.12248 7.261705,-0.93138 10.395057,-0.009 3.133692,0.92204 5.897823,2.57416 8.191739,4.37042 2.086813,1.6341 3.782563,3.38592 5.012723,4.81269 m -10.777695,11.82689 c 1e-6,-10e-6 -0.008,0.0106 -0.008,0.0106 -1.149326,1.52169 -3.020515,2.85607 -5.965263,3.70708 -5.847361,1.68985 -11.932101,-1.0536 -14.3202934,-7.15245 -1.387588,-3.54358 -1.4607937,-7.32143 -0.164533,-10.52695 1.2962834,-3.20558 3.9621064,-5.83904 8.0538844,-7.09545 3.797348,-1.16601 7.330927,-1.01186 10.495522,-0.12565 3.164642,0.88624 5.961274,2.50488 8.283906,4.2695 2.322699,1.76468 4.17181,3.67568 5.441359,5.14712 0.634779,0.73572 1.124709,1.3616 1.4565,1.80437 0.165898,0.2214 0.292271,0.39702 0.377454,0.51773 0.04259,0.0603 0.07489,0.10698 0.09668,0.13873 0.0109,0.0159 0.01917,0.028 0.02479,0.0363 0.0056,0.008 0.0085,0.0127 0.0089,0.0132 m 8.508781,0.0771 c -2.278705,-4.33405 -5.484174,-9.12916 -7.929312,-14.58662 -2.445484,-5.45823 -4.129695,-11.57643 -3.375209,-18.55674 0.753448,-6.97068 4.228119,-12.23887 7.513244,-15.76324 3.285928,-3.52522 6.385598,-5.30986 6.399654,-5.31795 3.4e-5,-2e-5 5e-5,-2e-5 5e-5,-2e-5 0,0 1.6e-5,1e-5 4.9e-5,3e-5 8.71e-4,5.6e-4 0.01333,0.009 0.03665,0.0242 0.02332,0.0156 0.05751,0.0386 0.101853,0.0692 0.08868,0.0612 0.217956,0.15232 0.382093,0.27346 0.32827,0.24227 0.795959,0.60443 1.357146,1.08623 1.122299,0.96355 2.618779,2.40581 4.121374,4.32439 3.004752,3.83661 6.036582,9.58134 6.143742,17.21398 0.107301,7.64262 -2.101698,13.57299 -5.146936,18.60408 -3.045275,5.03114 -6.924162,9.15889 -10.152345,13.19762 -9.139755,11.4346 -12.862278,25.78191 -12.869336,25.80913 -9e-6,4e-5 -1.4e-5,5e-5 -1.4e-5,5e-5 0,0 7e-6,-2e-5 2.2e-5,-6e-5 3.58e-4,-9.7e-4 0.0051,-0.0139 0.0138,-0.0384 0.0087,-0.0245 0.02137,-0.0604 0.0376,-0.10744 0.03245,-0.094 0.07915,-0.23209 0.136797,-0.41046 0.115301,-0.35674 0.274457,-0.87459 0.451276,-1.52289 0.35363,-1.29658 0.777966,-3.11515 1.063444,-5.21053 0.570941,-4.19065 0.586778,-9.48937 -1.630919,-13.93743 -1.487233,-2.98296 -3.398638,-4.59651 -4.943057,-5.46553 -0.772161,-0.43448 -1.452578,-0.68281 -1.941996,-0.82275 -0.244714,-0.07 -0.441698,-0.11285 -0.578531,-0.13834 -0.06842,-0.0127 -0.121801,-0.0211 -0.158597,-0.0264 -0.0368,-0.005 -0.057,-0.007 -0.05908,-0.008 -1.18e-4,-2e-5 -1.77e-4,-2e-5 -1.77e-4,-2e-5 -10e-7,0 9e-6,2e-5 2.9e-5,6e-5 4.5e-4,9.3e-4 0.0061,0.0127 0.01633,0.0346 0.0102,0.022 0.02494,0.0542 0.04353,0.096 0.03717,0.0837 0.08972,0.20607 0.152156,0.3625 0.124874,0.31287 0.289299,0.76208 0.449271,1.31113 0.319922,1.09802 0.622138,2.5957 0.554297,4.20025 -0.06783,1.60436 -0.505718,3.31653 -1.666982,4.84121 -1.161311,1.52475 -3.046491,2.86255 -6.010695,3.71676 -5.886708,1.69639 -12.003565,-1.04596 -14.4352783,-7.14598 -1.4131033,-3.54483 -1.5103274,-7.32479 -0.2381822,-10.53387 1.2722225,-3.20928 3.9135195,-5.84658 7.9740095,-7.11016 3.768016,-1.17258 7.275618,-1.02514 10.414193,-0.14619 3.138873,0.87904 5.909523,2.48985 8.20771,4.24678 2.298429,1.75712 4.124395,3.66037 5.376909,5.12619 0.62623,0.73288 1.109061,1.35635 1.435908,1.79746 0.163422,0.22055 0.287853,0.39553 0.371707,0.51578 0.02908,0.0417 0.05328,0.0768 0.07254,0.105 M 25.176845,267.386 c -1.146279,1.03419 -2.727251,1.92801 -4.878923,2.56775 -5.862317,1.74301 -11.9580037,-0.96577 -14.3549171,-7.02997 -1.3928292,-3.52388 -1.4695368,-7.2876 -0.1756937,-10.4823 1.293992,-3.19507 3.9582186,-5.82037 8.0499178,-7.0721 3.797589,-1.16175 7.331791,-1.00775 10.498655,-0.12403 3.166464,0.88362 5.966297,2.49707 8.292117,4.25464 2.325764,1.75753 4.179162,3.66045 5.4515,5.12457 0.636301,0.73221 1.127534,1.35498 1.460263,1.79555 0.16637,0.22029 0.293103,0.39502 0.378545,0.51513 0.04272,0.06 0.07511,0.10644 0.09697,0.13804 0.01093,0.0158 0.01922,0.0279 0.02486,0.0361 0.0056,0.008 0.0086,0.0126 0.0089,0.0131 m 33.21124,-40.10015 -28.157309,47.57672 M 2.0235845,244.68379 34.328262,239.46337 m 1.365586,21.09323 -21.519903,11.24271 m 82.408681,-6.25452 -3.807776,-26.24584 m -59.15674,-2.28594 9.536145,-39.2701"
       id="path3819-3"
       inkscape:connector-curvature="0"
       sodipodi:nodetypes="cscssscsccccscsscscsssc"
       inkscape:path-effect="#path-effect885"
       inkscape:original-d="m 65.265171,280.13598 c 0,0 -5.285284,-8.66837 -2.569659,-17.56025 2.607363,-8.5374 9.716808,-11.1643 9.716808,-11.1643 0,0 -3.990576,8.85161 2.356023,13.72405 7.616899,5.84768 17.255865,0.1357 19.245822,-5.83417 2.63808,-7.9142 -1.480027,-15.28119 -7.914238,-17.16569 -11.41179,-3.34235 -22.658844,6.53666 -26.533009,11.0393 -12.926592,15.3008 -14.509442,20.58302 -15.300866,28.23341 -0.791427,7.65041 5.164553,12.97931 5.164553,12.97931 0,0 6.852925,-5.26397 6.852925,-14.23341 0.416028,-6.4543 -1.840079,-11.87549 -3.739859,-17.62056 m -3.634599,-8.7723 c -4.48474,-8.70563 -12.662787,-19.2579 -11.07994,-33.23966 1.582852,-13.98177 14.03459,-21.10455 14.03459,-21.10455 0,0 11.976887,7.70316 12.240694,23.00395 0.263807,15.3008 -8.767145,23.76571 -15.195344,31.86788 -9.114288,11.48773 -12.794099,25.89579 -12.794099,25.89579 0,0 4.544335,-12.27767 0.131312,-21.14728 -2.965918,-5.96111 -7.650428,-6.41864 -7.650428,-6.41864 0,0 5.428811,11.16632 -6.399826,14.64304 -5.864224,1.72363 -11.961907,-0.99502 -14.3660501,-7.065 -2.7937649,-7.05372 -0.325942,-15.05421 7.8392771,-17.53974 15.168989,-4.61752 26.123075,11.87739 26.123075,11.87739" />
  </g>
</svg>
