<?xml version="1.0" encoding="UTF-8" standalone="no"?>
<!-- Created with Inkscape (http://www.inkscape.org/) -->

<svg
   xmlns:dc="http://purl.org/dc/elements/1.1/"
   xmlns:cc="http://creativecommons.org/ns#"
   xmlns:rdf="http://www.w3.org/1999/02/22-rdf-syntax-ns#"
   xmlns:svg="http://www.w3.org/2000/svg"
   xmlns="http://www.w3.org/2000/svg"
   xmlns:sodipodi="http://sodipodi.sourceforge.net/DTD/sodipodi-0.dtd"
   xmlns:inkscape="http://www.inkscape.org/namespaces/inkscape"
   width="100mm"
   height="100mm"
   viewBox="0 0 100 100"
   version="1.1"
   id="svg87"
   inkscape:version="0.92.3 (2405546, 2018-03-11)"
   sodipodi:docname="vshsdt-design-plain.svg">
  <defs
     id="defs81">
    <inkscape:path-effect
       effect="sketch"
       id="path-effect5888"
       is_visible="true"
       nbiter_approxstrokes="5"
       strokelength="150"
       strokelength_rdm="1;1"
       strokeoverlap="0"
       strokeoverlap_rdm="0;1"
       ends_tolerance="0.1;1"
       parallel_offset="5;1"
       tremble_size="1;1"
       tremble_frequency="1"
       nbtangents="10"
       tgt_places_rdmness="0.2;1"
       tgtscale="0"
       tgtlength="99"
       tgtlength_rdm="0;1" />
  </defs>
  <sodipodi:namedview
     id="base"
     pagecolor="#ffffff"
     bordercolor="#666666"
     borderopacity="1.0"
     inkscape:pageopacity="0.0"
     inkscape:pageshadow="2"
     inkscape:zoom="0.98994949"
     inkscape:cx="118.68738"
     inkscape:cy="185.43859"
     inkscape:document-units="mm"
     inkscape:current-layer="layer1"
     showgrid="false"
     inkscape:window-width="1366"
     inkscape:window-height="712"
     inkscape:window-x="0"
     inkscape:window-y="0"
     inkscape:window-maximized="1" />
  <metadata
     id="metadata84">
    <rdf:RDF>
      <cc:Work
         rdf:about="">
        <dc:format>image/svg+xml</dc:format>
        <dc:type
           rdf:resource="http://purl.org/dc/dcmitype/StillImage" />
        <dc:title></dc:title>
      </cc:Work>
    </rdf:RDF>
  </metadata>
  <g
     inkscape:label="Layer 1"
     inkscape:groupmode="layer"
     id="layer1"
     transform="translate(0,-197)">
    <path
       style="fill:none;stroke:#000000;stroke-width:0.86143512;stroke-linecap:square;stroke-linejoin:bevel;stroke-miterlimit:4;stroke-dasharray:none;stroke-opacity:1"
       d="m 50.491838,291.64265 c 0.95897,-0.89731 1.981155,-1.91559 3.052349,-3.06678 1.580738,-1.69879 3.509004,-4.46115 5.681775,-7.68422 2.171371,-3.221 4.59104,-6.90839 7.150282,-10.44866 2.560686,-3.54226 5.265832,-6.94412 8.018235,-9.60588 2.752593,-2.66193 5.553147,-4.58437 8.305999,-5.16916 1.094277,-0.23246 2.191014,-0.34093 3.2696,-0.33435 m 1.075342,-8.18241 c 2.83882,0.0106 5.554535,0.82066 7.769231,2.26689 0.157181,0.10265 0.311839,0.20849 0.463839,0.31749 m -3.723779,6.18875 c 2.78781,2.00713 4.673359,5.08245 4.807814,8.85919 0.152636,4.28755 -0.890156,7.82151 -1.974782,10.28769 -0.260908,0.59324 -0.524196,1.1246 -0.773778,1.58971 m 3.95859,1.81575 c -0.264298,0.50565 -0.513437,0.93372 -0.727207,1.27856 -0.206013,0.33234 -0.379222,0.58745 -0.501536,0.76025 -0.06116,0.0864 -0.10961,0.15225 -0.143085,0.19689 -0.01674,0.0223 -0.02974,0.0394 -0.03871,0.051 -0.009,0.0117 -0.01392,0.0179 -0.01457,0.0187 -4.8e-5,6e-5 -7.2e-5,9e-5 -7.1e-5,9e-5 0,0 -1.2e-5,-3e-5 -3.7e-5,-1.1e-4 -3.24e-4,-9.8e-4 -0.0028,-0.008 -0.0074,-0.0217 -0.0046,-0.0133 -0.01146,-0.0327 -0.02054,-0.0576 -0.01817,-0.0499 -0.0454,-0.1222 -0.08227,-0.21386 -0.07373,-0.18332 -0.185995,-0.444 -0.341463,-0.75743 -0.310945,-0.62688 -0.794661,-1.46463 -1.488299,-2.31616 -1.386944,-1.70263 -3.614448,-3.46122 -6.970887,-3.69081 -3.364177,-0.23012 -7.132041,0.23689 -10.68586,0.73052 -3.554204,0.49368 -6.893702,1.01387 -9.401586,0.8913 -3.135055,-0.1532 -7.332054,-0.20604 -11.733343,-2.5625 -4.400896,-2.35624 -9.004197,-7.01509 -12.948404,-16.37649 -1.585304,-3.76267 -2.265664,-7.20422 -2.34595,-10.37879 -0.08028,-3.17456 0.4395,-6.08179 1.254116,-8.77608 1.629207,-5.38851 4.437795,-9.92457 5.980666,-14.04424 1.238032,-3.3057 2.034618,-6.71432 2.522003,-9.2985 0.243742,-1.29236 0.41027,-2.37916 0.516048,-3.14483 0.05289,-0.38286 0.0906,-0.68544 0.115188,-0.89336 0.01229,-0.10396 0.02131,-0.18425 0.0273,-0.23906 0.003,-0.0274 0.0052,-0.0485 0.0068,-0.0629 0.0015,-0.0145 0.0023,-0.0223 0.0024,-0.0233 8e-6,-8e-5 1.2e-5,-1.2e-4 1.2e-5,-1.2e-4 0,0 8e-6,1e-5 2.4e-5,2e-5 0.0089,0.008 2.318442,2.174 5.262579,5.83818 m -6.227129,-7.25082 c 1.20389,1.50252 2.51554,3.25965 3.817928,5.22466 2.226347,3.35906 4.427382,7.32821 6.015711,11.67306 1.588545,4.34545 2.564578,9.06752 2.34048,13.9343 -0.378367,8.21717 -2.465894,14.22333 -5.86752,18.64843 -3.40015,4.42318 -8.108499,7.25888 -13.709472,9.12716 -1.015407,0.33871 -1.992326,0.61536 -2.933842,0.83806 m 3.254081,1.36014 c -4.825551,1.15565 -8.732986,0.91965 -12.119796,0.34712 -4.059429,-0.68624 -7.372404,-1.85583 -10.633133,-1.70613 -4.193908,0.19255 -6.512243,2.17739 -7.782339,4.11748 -0.12386,0.1892 -0.237745,0.37797 -0.342424,0.56461 m -1.164736,4.31936 c -0.437292,0.77333 -0.7171615,1.51022 -0.893217,2.09063 -0.1093603,0.36054 -0.1786765,0.66074 -0.220778,0.87182 -0.021051,0.10554 -0.035301,0.18881 -0.044349,0.2462 -0.00452,0.0287 -0.00775,0.0509 -0.00987,0.0663 -0.00212,0.0153 -0.00315,0.0237 -0.00327,0.0247 -8.7e-6,7e-5 -1.32e-5,1.1e-4 -1.34e-5,1.1e-4 -10e-8,0 -6.4e-6,-1e-5 -1.88e-5,-3e-5 -2.599e-4,-4.5e-4 -0.00324,-0.006 -0.00879,-0.0154 -0.00556,-0.01 -0.013695,-0.0241 -0.024274,-0.0429 -0.021157,-0.0376 -0.052087,-0.0931 -0.091678,-0.16545 -0.079178,-0.14465 -0.1930431,-0.3567 -0.3327218,-0.62792 -0.2793804,-0.54249 -0.6620749,-1.3218 -1.0774581,-2.27294 -0.8310146,-1.90286 -1.7917932,-4.49103 -2.3198868,-7.24719 -0.5279923,-2.75564 -0.6229541,-5.67715 0.2759021,-8.24388 0.053589,-0.15303 0.1107112,-0.30479 0.1714845,-0.45519 m 2.7665836,-5.79092 c 0.1469057,-0.36161 0.3148248,-0.71526 0.5054106,-1.05944 m -5.4952768,-0.92819 c 0.3961867,-0.71099 0.8899128,-1.38137 1.495977,-1.99746 1.0198694,-1.03673 2.3577003,-1.91956 4.0841304,-2.5836 4.0953698,-1.57522 7.7470368,-1.47759 10.9249548,-0.44324 3.177305,1.03416 5.879328,3.00441 8.069735,5.17165 4.380838,4.33451 6.715606,9.45711 6.722282,9.47177 10e-6,2e-5 1.5e-5,3e-5 1.5e-5,3e-5 0,0 1.1e-5,2e-5 3.2e-5,6e-5 0.0081,0.0143 1.578213,2.78463 4.106844,6.2675 2.528826,3.48314 6.015559,7.67798 9.861972,10.54753 0.345269,0.25759 0.685452,0.50868 1.020314,0.75334 m 1.958978,1.98485 c 0.308021,-0.31663 0.620816,-0.64479 0.93802,-0.98482 1.563021,-1.67552 3.468994,-4.40678 5.623266,-7.59804 2.155345,-3.19286 4.556277,-6.84165 7.11254,-10.35877 2.55519,-3.51565 5.262045,-6.89459 8.021565,-9.53904 2.759099,-2.64405 5.571045,-4.55397 8.334478,-5.12821 3.993888,-0.82994 8.024065,-0.0245 11.099594,1.98971 3.075881,2.0144 5.195511,5.23642 5.373325,9.24262 0.191431,4.31312 -0.821045,7.87243 -1.882749,10.35612 -0.530912,1.24199 -1.074356,2.21547 -1.486259,2.87995 -0.205965,0.33227 -0.379068,0.58731 -0.501322,0.76011 -0.06113,0.0864 -0.109544,0.15223 -0.143,0.19688 -0.01673,0.0223 -0.02972,0.0393 -0.03868,0.051 -0.009,0.0117 -0.01391,0.0179 -0.01456,0.0187 -4.8e-5,6e-5 -7.2e-5,9e-5 -7.1e-5,9e-5 0,0 -1.2e-5,-3e-5 -3.7e-5,-1.1e-4 -3.24e-4,-9.8e-4 -0.0028,-0.008 -0.0074,-0.0217 -0.0046,-0.0134 -0.01144,-0.0327 -0.02052,-0.0576 -0.01815,-0.0499 -0.04535,-0.12221 -0.08217,-0.21387 -0.07364,-0.18332 -0.185762,-0.444 -0.341012,-0.75739 -0.310505,-0.6268 -0.793472,-1.46437 -1.485819,-2.31537 -1.384204,-1.7014 -3.607566,-3.45823 -6.955227,-3.68256 -2.875829,-0.19272 -6.043306,0.12883 -9.117891,0.54243 m -3.991409,-1.66518 c -0.513746,0.0671 -1.024981,0.13681 -1.531868,0.20702 -3.543439,0.49078 -6.874533,1.00811 -9.376923,0.88327 -3.127594,-0.15601 -7.317604,-0.21278 -11.712349,-2.57461 -4.395807,-2.3624 -8.991313,-7.02731 -12.93999,-16.40622 -1.587182,-3.7699 -2.270827,-7.21801 -2.355171,-10.3996 -0.0528,-1.99163 0.129253,-3.87853 0.471319,-5.67414 m -1.160559,-1.49338 c 0.212085,-1.06773 0.480916,-2.10309 0.790606,-3.109 1.656153,-5.3794 4.480695,-9.91493 6.032191,-14.03842 1.245445,-3.31007 2.044184,-6.72239 2.532328,-9.31458 0.243982,-1.29562 0.41022,-2.38555 0.515686,-3.15356 0.05273,-0.38398 0.09028,-0.68759 0.114745,-0.89614 0.01223,-0.10428 0.0212,-0.18484 0.02716,-0.23982 0.003,-0.0275 0.0052,-0.0486 0.0067,-0.0631 0.0015,-0.0145 0.0023,-0.0224 0.0024,-0.0234 8e-6,-8e-5 1.2e-5,-1.2e-4 1.2e-5,-1.2e-4 0,0 8e-6,10e-6 2.5e-5,3e-5 0.01275,0.0119 4.618885,4.31472 9.093119,11.04003 2.237044,3.36254 4.440604,7.32979 6.022714,11.67052 1.582018,4.34048 2.54262,9.05443 2.293716,13.90879 -0.420084,8.19302 -2.561038,14.18274 -6.012817,18.5829 -1.225068,1.56166 -2.615432,2.92336 -4.153047,4.11259 m 1.026117,8.80405 c -2.767698,2.18942 -6.022801,3.81247 -9.654941,5.0376 -6.180257,2.0846 -10.94952,1.893 -14.985708,1.22371 -4.033709,-0.66888 -7.340048,-1.81633 -10.587161,-1.64044 -4.181912,0.22654 -6.49459,2.23986 -7.7617957,4.20702 -0.6334327,0.98332 -1.0051122,1.95414 -1.2187392,2.68176 -0.1067968,0.36375 -0.1740496,0.66657 -0.214724,0.87953 -0.020337,0.10647 -0.034027,0.19047 -0.042693,0.24837 -0.00433,0.029 -0.00741,0.0514 -0.00943,0.0668 -0.00202,0.0154 -0.00299,0.0239 -0.00311,0.025 -8.3e-6,7e-5 -1.23e-5,1.1e-4 -1.2e-5,1.1e-4 10e-8,0 -6e-6,-10e-6 -1.83e-5,-3e-5 -2.57e-4,-4.5e-4 -0.0032,-0.006 -0.00868,-0.0152 -0.00548,-0.01 -0.013512,-0.0239 -0.02395,-0.0425 -0.020876,-0.0373 -0.051385,-0.0922 -0.090441,-0.1638 -0.078113,-0.14322 -0.1903945,-0.35311 -0.3281344,-0.62164 -0.2754706,-0.53705 -0.6527476,-1.30859 -1.0619746,-2.25 -0.8184003,-1.8827 -1.7648159,-4.4453 -2.2798534,-7.17047 -0.3980728,-2.10629 -0.5385939,-4.31054 -0.162776,-6.37274 m 1.6482708,-1.4864 c 0.1050144,-0.60899 0.2546635,-1.20581 0.4554997,-1.78434 0.4421978,-1.27378 1.1325617,-2.4589 2.1406925,-3.48947 1.0081129,-1.03055 2.3339686,-1.90652 4.0469516,-2.56166 2.313786,-0.88491 4.487557,-1.228 6.513719,-1.16453 m 0.964526,-6.86972 c 1.539886,0.0327 2.994592,0.29897 4.361111,0.73951 3.173561,1.02311 5.872301,2.9863 8.05953,5.14945 4.37514,4.32696 6.703744,9.45417 6.710777,9.46966 10e-6,3e-5 1.5e-5,4e-5 1.5e-5,4e-5 0,0 1.1e-5,2e-5 3.2e-5,5e-5 0.0085,0.0151 1.574678,2.78625 4.099408,6.27937 2.053255,2.8408 4.741496,6.16031 7.739632,8.85541 m 0.241485,4.94287 c 0.687896,0.62148 1.392402,1.21007 2.109667,1.75256 4.734862,3.58112 8.526998,5.93462 10.7416,7.21449 m -17.819197,-4.9848 c 1.390469,-1.19198 2.961018,-2.67064 4.655109,-4.48535 1.574101,-1.68619 3.493279,-4.43234 5.658856,-7.64496 2.162428,-3.20794 4.579415,-6.89456 7.134357,-10.43552 2.557588,-3.54463 5.263234,-6.95751 8.017192,-9.63316 2.754806,-2.67647 5.557771,-4.61527 8.314489,-5.21671 3.982819,-0.86896 7.999644,-0.10314 11.059962,1.86999 3.060302,1.97313 5.164188,5.15408 5.320645,9.1095 0.168445,4.2586 -0.865836,7.76608 -1.944814,10.21076 -0.539511,1.22238 -1.090153,2.17904 -1.507274,2.83176 -0.208552,0.32635 -0.383711,0.5767 -0.507383,0.74626 -0.06184,0.0848 -0.1108,0.14936 -0.144631,0.19315 -0.01691,0.0219 -0.03005,0.0386 -0.03911,0.05 -0.0091,0.0114 -0.01407,0.0176 -0.01472,0.0184 -4.9e-5,5e-5 -7.3e-5,8e-5 -7.3e-5,8e-5 0,0 -1.3e-5,-4e-5 -3.9e-5,-1.1e-4 -3.31e-4,-10e-4 -0.0028,-0.008 -0.0075,-0.022 -0.0047,-0.0136 -0.01168,-0.0332 -0.02093,-0.0586 -0.01851,-0.0507 -0.04623,-0.12422 -0.08372,-0.21741 -0.07498,-0.18639 -0.189032,-0.45147 -0.346679,-0.77034 -0.315323,-0.63779 -0.804907,-1.49047 -1.505023,-2.3592 -1.401397,-1.73889 -3.640845,-3.53592 -7.014955,-3.8194 -3.379378,-0.28393 -7.166903,0.12202 -10.732894,0.55628 -3.566806,0.43435 -6.919462,0.89816 -9.433452,0.733 -3.14009,-0.20629 -7.356099,-0.33045 -11.762458,-2.77286 -0.928591,-0.5147 -1.866215,-1.13263 -2.804671,-1.87649 m 0.494906,0.50723 c -3.516682,-2.70246 -7.046187,-7.15247 -10.161788,-14.52492 -1.586189,-3.75341 -2.266469,-7.18672 -2.346367,-10.35303 -0.0799,-3.1664 0.440596,-6.06576 1.25599,-8.75212 1.63078,-5.37268 4.441254,-9.89272 5.985311,-13.99846 1.239043,-3.29467 2.036183,-6.69153 2.523801,-9.26702 0.243851,-1.28796 0.410386,-2.37099 0.516157,-3.13405 0.05289,-0.38154 0.09058,-0.68308 0.115162,-0.89028 0.01229,-0.1036 0.0213,-0.18361 0.02729,-0.23824 0.003,-0.0273 0.0052,-0.0483 0.0068,-0.0627 0.0015,-0.0144 0.0023,-0.0222 0.0024,-0.0232 8e-6,-8e-5 1.2e-5,-1.2e-4 1.2e-5,-1.2e-4 0,0 8e-6,1e-5 2.4e-5,3e-5 0.01167,0.011 4.622142,4.35537 9.116079,11.15397 2.247309,3.39981 4.466021,7.41403 6.06717,11.8087 1.601246,4.39493 2.584668,9.1696 2.362562,14.09357 -0.374979,8.31324 -2.474487,14.40141 -5.888643,18.9029 -2.328161,3.06962 -5.267552,5.40133 -8.686436,7.19724 m 4.101853,-2.84692 c -1.600944,0.81588 -3.306175,1.51384 -5.102461,2.11383 -6.199332,2.07069 -10.97877,1.85832 -15.018993,1.16701 -4.041336,-0.6915 -7.343694,-1.86217 -10.593479,-1.71153 -4.181157,0.19381 -6.49267,2.18261 -7.757155,4.12623 -0.632285,0.97187 -1.002805,1.93232 -1.215463,2.65198 -0.106324,0.35981 -0.173172,0.65937 -0.213557,0.87003 -0.02019,0.10533 -0.03377,0.18843 -0.04236,0.24571 -0.0043,0.0286 -0.0073,0.0508 -0.0093,0.0661 -0.002,0.0153 -0.003,0.0237 -0.0031,0.0247 -9e-6,8e-5 -1.2e-5,1.1e-4 -1.2e-5,1.1e-4 0,0 -6e-6,-1e-5 -1.8e-5,-3e-5 -2.56e-4,-4.5e-4 -0.0032,-0.006 -0.0087,-0.0154 -0.0055,-0.01 -0.01347,-0.0242 -0.02388,-0.043 -0.02081,-0.0377 -0.05124,-0.0933 -0.09018,-0.16584 -0.07788,-0.14498 -0.189834,-0.3575 -0.32712,-0.62935 -0.274578,-0.54371 -0.65054,-1.32487 -1.058011,-2.2782 -0.814992,-1.90678 -1.755929,-4.50211 -2.2644548,-7.26456 -0.2958096,-1.60691 -0.4453007,-3.27042 -0.3383733,-4.8874 m -8.2792572,8.29669 c 0.074865,-1.16248 0.2820907,-2.30087 0.6627682,-3.37695 0.4550846,-1.28641 1.1580962,-2.48393 2.1795978,-3.52761 1.0215171,-1.04369 2.3616265,-1.93365 4.0911824,-2.60506 4.1024359,-1.59257 7.7640939,-1.50457 10.9515139,-0.47797 3.187207,1.02654 5.901496,2.99216 8.104739,5.15655 4.405501,4.32781 6.773459,9.45663 6.779734,9.47023 1e-5,2e-5 1.5e-5,3e-5 1.5e-5,3e-5 1e-6,0 1.2e-5,2e-5 3.3e-5,6e-5 0.0078,0.0137 1.596227,2.7868 4.152731,6.27519 2.556992,3.48904 6.083978,7.69578 9.971063,10.5791 1.046986,0.77663 2.047886,1.49478 2.996202,2.15617 m -1.793891,-6.38545 c 0.323183,-0.33307 0.651582,-0.67877 0.984767,-1.03747 1.572807,-1.69329 3.490594,-4.44886 5.654099,-7.66759 2.162305,-3.21696 4.573445,-6.90177 7.127892,-10.44434 2.555508,-3.54404 5.258285,-6.95132 8.010196,-9.62011 2.752289,-2.66915 5.553618,-4.59959 8.308236,-5.19247 3.980079,-0.85664 7.994161,-0.0766 11.051582,1.91204 3.057329,1.98859 5.158448,5.18626 5.311173,9.16227 0.164444,4.28121 -0.873515,7.80994 -1.955482,10.27126 -0.540976,1.23064 -1.092885,2.19433 -1.510896,2.85202 -0.209,0.32883 -0.384515,0.58116 -0.508433,0.75208 -0.06196,0.0855 -0.111018,0.15057 -0.144914,0.19471 -0.01695,0.0221 -0.03011,0.0389 -0.03919,0.0504 -0.0091,0.0115 -0.01409,0.0177 -0.01474,0.0185 -4.9e-5,6e-5 -7.4e-5,9e-5 -7.4e-5,9e-5 0,0 -1.3e-5,-4e-5 -3.8e-5,-1.2e-4 -3.33e-4,-9.9e-4 -0.0028,-0.008 -0.0076,-0.0219 -0.0047,-0.0135 -0.01172,-0.033 -0.02101,-0.0582 -0.01857,-0.0504 -0.04638,-0.12338 -0.08399,-0.21592 -0.07521,-0.1851 -0.189602,-0.44834 -0.347665,-0.7649 -0.316136,-0.63315 -0.80693,-1.47953 -1.508387,-2.3408 -1.403429,-1.72316 -3.647735,-3.50342 -7.025694,-3.76246 -3.384944,-0.25959 -7.176399,0.17468 -10.749128,0.63689 -3.573247,0.46228 -6.93068,0.95298 -9.449913,0.80816 -1.84369,-0.10598 -4.053958,-0.18087 -6.455616,-0.70624 m 4.203541,4.82093 c -1.703672,-0.37103 -3.503506,-0.96674 -5.337855,-1.95813 -4.423911,-2.39094 -9.05325,-7.08761 -13.010429,-16.47765 -1.590119,-3.77322 -2.271594,-7.22048 -2.351438,-10.39798 -0.07984,-3.17751 0.441983,-6.08574 1.25947,-8.77944 1.635002,-5.3875 4.453144,-9.9171 6.00511,-14.0297 1.245257,-3.29983 2.050105,-6.70185 2.543766,-9.28012 0.246909,-1.28955 0.416122,-2.37381 0.523807,-3.13775 0.05385,-0.38199 0.0923,-0.68385 0.117409,-0.8913 0.01255,-0.10372 0.02177,-0.18381 0.0279,-0.2385 0.0031,-0.0273 0.0054,-0.0483 0.0069,-0.0627 0.0016,-0.0144 0.0024,-0.0222 0.0025,-0.0233 8e-6,-8e-5 1.2e-5,-1.2e-4 1.3e-5,-1.2e-4 0,0 8e-6,1e-5 2.4e-5,3e-5 0.01257,0.0118 4.636806,4.34777 9.156208,11.13813 2.25961,3.39505 4.492722,7.40324 6.109179,11.78993 1.616599,4.38707 2.61598,9.15126 2.410261,14.06167 -0.347277,8.28941 -2.426897,14.3519 -5.823982,18.82397 -0.468414,0.61664 -0.961858,1.20301 -1.479231,1.76075 m 0.314072,-2.87568 c -3.266762,3.44504 -7.468296,5.77117 -12.342963,7.37415 -6.206001,2.04078 -10.993766,1.80538 -15.043873,1.09281 -4.052461,-0.71299 -7.362151,-1.90209 -10.624147,-1.76998 -4.194459,0.16988 -6.518099,2.14316 -7.791941,4.07156 -0.637143,0.96453 -1.012278,1.9187 -1.228293,2.6334 -0.108018,0.35739 -0.176276,0.65498 -0.217648,0.86424 -0.02069,0.10463 -0.03465,0.18718 -0.04351,0.24409 -0.0044,0.0284 -0.0076,0.0505 -0.0097,0.0657 -0.0021,0.0152 -0.0031,0.0235 -0.0032,0.0245 -9e-6,7e-5 -1.3e-5,1e-4 -1.3e-5,1e-4 0,0 -6e-6,-1e-5 -1.9e-5,-3e-5 -2.58e-4,-4.6e-4 -0.0032,-0.006 -0.0087,-0.0155 -0.0055,-0.01 -0.0136,-0.0244 -0.02411,-0.0434 -0.02102,-0.038 -0.05173,-0.094 -0.09106,-0.16706 -0.07864,-0.14606 -0.191719,-0.36014 -0.330446,-0.634 -0.277454,-0.54771 -0.65756,-1.33459 -1.070178,-2.29491 -0.825243,-1.92065 -1.7805895,-4.53518 -2.3050967,-7.31798 -0.5245536,-2.78305 -0.6181202,-5.73334 0.2800108,-8.32885 0.4491229,-1.29793 1.1461139,-2.50708 2.1612979,-3.56412 1.015201,-1.05706 2.348354,-1.96176 4.069892,-2.65174 4.083289,-1.63654 7.730055,-1.58737 10.902473,-0.60103 3.171908,0.98617 5.872515,2.91029 8.06088,5.03161 4.376577,4.2425 6.71835,9.2857 6.723598,9.29701 1e-5,2e-5 1.6e-5,3e-5 1.6e-5,3e-5 0,0 1e-5,2e-5 3.2e-5,6e-5 0.0075,0.013 1.580632,2.73703 4.114023,6.151 0.230175,0.31018 0.468288,0.62608 0.713893,0.94618 m -8.236702,0.4464 c 2.447971,3.27746 5.646592,6.99504 9.149153,9.62083 0.137486,0.10308 0.274175,0.20512 0.41005,0.30615 m -7.973803,4.39004 c 1.917201,-1.3747 4.54279,-3.53042 7.559376,-6.74152 1.575167,-1.67674 3.495911,-4.40828 5.661534,-7.59833 2.163928,-3.18755 4.577398,-6.84055 7.131306,-10.34755 2.555516,-3.50922 5.257178,-6.88023 8.007332,-9.51505 2.74993,-2.63462 5.550349,-4.53507 8.302272,-5.10028 3.977111,-0.81685 7.987563,0.003 11.041314,2.03199 3.053455,2.02904 5.150888,5.26765 5.298698,9.29293 0.159176,4.33491 -0.883471,7.91319 -1.969124,10.41307 -0.542769,1.24981 -1.096239,2.22986 -1.515302,2.89909 -0.209535,0.33462 -0.385476,0.59154 -0.509685,0.76563 -0.06211,0.087 -0.111276,0.15337 -0.145249,0.19836 -0.01699,0.0225 -0.03017,0.0396 -0.03928,0.0514 -0.0091,0.0117 -0.01412,0.0181 -0.01478,0.0189 -4.9e-5,6e-5 -7.3e-5,9e-5 -7.4e-5,9e-5 0,0 -1.3e-5,-4e-5 -3.8e-5,-1.1e-4 -3.34e-4,-9.7e-4 -0.0028,-0.008 -0.0076,-0.0215 -0.0048,-0.0133 -0.01177,-0.0325 -0.02109,-0.0573 -0.01865,-0.0496 -0.04657,-0.1214 -0.08431,-0.21245 -0.07548,-0.18209 -0.190276,-0.44103 -0.348824,-0.75223 -0.31706,-0.62233 -0.809307,-1.45403 -1.512258,-2.29785 -0.425519,-0.51079 -0.928368,-1.02617 -1.51639,-1.50218 m 2.363386,3.33426 c -1.353572,-1.11654 -3.159385,-2.02727 -5.515808,-2.19489 -0.140788,-0.01 -0.282274,-0.0188 -0.424412,-0.0265 m 2.703688,2.51579 c -3.263539,-0.19003 -6.872975,0.23509 -10.284963,0.68844 -3.559289,0.47292 -6.904537,0.97672 -9.414229,0.84281 -3.13752,-0.16741 -7.339704,-0.23722 -11.74234,-2.6095 -4.403137,-2.37254 -9.007959,-7.04871 -12.950293,-16.42914 -1.584489,-3.77016 -2.263794,-7.21718 -2.343034,-10.3966 -0.07924,-3.17936 0.441594,-6.0908 1.257178,-8.78917 1.51785,-5.02181 4.056597,-9.30522 5.645724,-13.20166 m -3.975409,-0.55882 c 0.116566,-0.29006 0.227879,-0.57799 0.333118,-0.86393 1.215902,-3.30369 1.991348,-6.7119 2.46319,-9.29798 0.235939,-1.29313 0.395974,-2.38077 0.497213,-3.14724 0.05062,-0.38323 0.08653,-0.68612 0.109892,-0.89428 0.01168,-0.10407 0.02022,-0.18444 0.02589,-0.23932 0.0028,-0.0274 0.005,-0.0485 0.0064,-0.063 0.0014,-0.0145 0.0022,-0.0223 0.0023,-0.0234 7e-6,-8e-5 1.1e-5,-1.1e-4 10e-6,-1.1e-4 0,0 8e-6,0 2.4e-5,2e-5 0.01003,0.009 2.885237,2.72352 6.295467,7.21013 m 3.901707,0.73525 c 0.895596,1.17543 1.828113,2.47181 2.755582,3.87201 2.237934,3.3786 4.447663,7.36331 6.040226,11.71726 1.592769,4.35452 2.568698,9.07945 2.339946,13.94246 -0.386094,8.20806 -2.491147,14.1985 -5.909697,18.5995 -3.418126,4.40046 -8.14783,7.20864 -13.777359,9.03925 -0.426014,0.13853 -0.845304,0.26628 -1.25809,0.38383 m -2.869377,-4.44938 c -5.619258,1.61428 -10.034005,1.3753 -13.81339,0.72504 -4.056485,-0.69793 -7.37449,-1.86893 -10.635654,-1.71573 -4.196699,0.19714 -6.519492,2.19288 -7.7928613,4.1425 -0.6368103,0.975 -1.0113674,1.9387 -1.226983,2.66083 -0.1078032,0.36105 -0.1758655,0.66169 -0.2170986,0.87309 -0.020617,0.1057 -0.034526,0.1891 -0.043342,0.24658 -0.00441,0.0288 -0.00754,0.051 -0.0096,0.0663 -0.00206,0.0153 -0.00305,0.0238 -0.00317,0.0248 -8.4e-6,8e-5 -1.26e-5,1.1e-4 -1.25e-5,1.1e-4 0,0 -6.2e-6,-1e-5 -1.85e-5,-3e-5 -2.582e-4,-4.5e-4 -0.00321,-0.006 -0.00872,-0.0154 -0.00551,-0.01 -0.013584,-0.0241 -0.024077,-0.0428 -0.020986,-0.0376 -0.05166,-0.093 -0.090925,-0.16516 -0.07853,-0.1444 -0.1914297,-0.35603 -0.3299272,-0.62675 -0.2769966,-0.54144 -0.6563871,-1.31923 -1.0680061,-2.26819 -0.8232925,-1.89806 -1.775287,-4.48036 -2.2954161,-7.22695 -0.5200797,-2.74632 -0.6084396,-5.65746 0.2955832,-8.21212 0.4520043,-1.27731 1.1522073,-2.46572 2.1708603,-3.49929 1.0186548,-1.03357 2.3559764,-1.91252 4.0824701,-2.5705 4.095516,-1.56083 7.752622,-1.44627 10.93645,-0.39301 3.18397,1.05331 5.8944,3.04532 8.095463,5.23651 4.401493,4.38175 6.763329,9.55832 6.770534,9.57413 1.1e-5,2e-5 1.6e-5,3e-5 1.6e-5,3e-5 0,0 1.1e-5,2e-5 3.3e-5,6e-5 0.0083,0.0147 1.593317,2.81533 4.146589,6.34598 2.553314,3.5307 6.074669,7.79113 9.955068,10.72424 3.682055,2.78321 6.791712,4.83286 9.045121,6.21939 m 34.726401,-33.54729 z m -33.214593,15.9618 z M 40.879187,255.22976 Z m 17.915965,14.83193 z M 44.093107,217.96316 Z m 20.361936,25.30794 z m -24.269725,27.05631 z m -34.3906897,-5.2129 z m 15.9657377,3.61405 z M 7.150187,256.11552 Z"
       id="path4535-6-7-9-3-7"
       inkscape:connector-curvature="0"
       sodipodi:nodetypes="csssccssscssscscsc"
       inkscape:path-effect="#path-effect5888"
       inkscape:original-d="m 40.848329,292.37361 c 0,0 4.568672,-2.13083 10.844043,-8.88892 6.275335,-6.75808 18.055249,-30.48874 29.079145,-32.82714 7.964858,-1.68952 16.068703,3.16821 16.384972,11.15107 0.34133,8.61564 -4.150219,14.20388 -4.150219,14.20388 0,0 -2.213644,-6.62054 -8.971728,-7.10325 -6.758064,-0.48272 -15.128335,1.82325 -20.156148,1.56734 -6.285747,-0.31991 -16.827239,-0.24408 -24.736736,-18.9928 -6.358135,-15.07143 1.778315,-24.9938 4.851459,-33.24917 2.472164,-6.64094 3.164874,-13.69184 3.164874,-13.69184 0,0 18.387124,17.21709 17.431244,36.74081 -0.806242,16.46762 -8.494807,24.09249 -19.807106,27.85714 -12.41607,4.13198 -19.152425,-0.8477 -25.673292,-0.53898 -8.409403,0.39813 -9.2959009,8.00629 -9.2959009,8.00629 0,0 -11.1019331,-19.3803 2.6792099,-24.7187 16.344998,-6.33157 25.684088,14.21742 25.684088,14.21742 0,0 6.275336,11.10257 13.998857,16.89519 7.72351,5.79266 12.916287,8.34765 12.916287,8.34765" />
  </g>
</svg>
