<!--?xml version="1.0" encoding="UTF-8" standalone="no"?-->
<!-- Created with Inkscape (http://www.inkscape.org/) -->

<svg xmlns:dc="http://purl.org/dc/elements/1.1/" xmlns:cc="http://creativecommons.org/ns#" xmlns:rdf="http://www.w3.org/1999/02/22-rdf-syntax-ns#" xmlns:svg="http://www.w3.org/2000/svg" xmlns="http://www.w3.org/2000/svg" xmlns:sodipodi="http://sodipodi.sourceforge.net/DTD/sodipodi-0.dtd" xmlns:inkscape="http://www.inkscape.org/namespaces/inkscape" width="100mm" height="100mm" viewBox="0 0 100 100" version="1.1" id="svg4773" sodipodi:docname="vshsdt-plain.svg" inkscape:version="0.92.3 (2405546, 2018-03-11)" style="">
  <defs id="defs4767"></defs>
  <sodipodi:namedview id="base" pagecolor="#ffffff" bordercolor="#666666" borderopacity="1.0" inkscape:pageopacity="0.0" inkscape:pageshadow="2" inkscape:zoom="1" inkscape:cx="200" inkscape:cy="200" inkscape:document-units="mm" inkscape:current-layer="layer1" showgrid="false" inkscape:window-width="1366" inkscape:window-height="712" inkscape:window-x="0" inkscape:window-y="0" inkscape:window-maximized="1"></sodipodi:namedview>
  <metadata id="metadata4770">
    <rdf:rdf>
      <cc:work rdf:about="">
        <dc:format>image/svg+xml</dc:format>
        <dc:type rdf:resource="http://purl.org/dc/dcmitype/StillImage"></dc:type>
        <dc:title></dc:title>
      </cc:work>
    </rdf:rdf>
  </metadata>
  <g inkscape:label="Layer 1" inkscape:groupmode="layer" id="layer1" transform="translate(0,-197)">
    <path style="fill: none; stroke: rgb(0, 0, 0); stroke-width: 4.23089; stroke-linecap: square; stroke-linejoin: bevel; stroke-miterlimit: 4; stroke-opacity: 1;" d="m 38.930683,291.71559 c 0,0 4.690962,-2.18786 11.134307,-9.12682 6.443319,-6.93898 18.538543,-33.7507 29.857521,-36.15171 8.178059,-1.73475 16.498825,3.25302 16.823557,11.44954 0.350469,8.84622 -4.261307,14.58406 -4.261307,14.58406 0,0 -2.2729,-6.79775 -9.211882,-7.29339 -6.93896,-0.49564 -10.758908,4.9002 -17.202231,4.40456 -6.44332,-0.49563 -20.771106,-0.59997 -28.892319,-19.85052 -6.528334,-15.47479 1.825912,-25.66276 4.981311,-34.1391 2.538342,-6.81869 3.249598,-14.05831 3.249598,-14.05831 0,0 18.879305,17.67793 17.897837,37.72421 -0.827823,16.90839 -9.210119,25.14966 -20.919537,28.7192 -16.591205,5.05772 -14.541375,-3.69487 -25.77826,-3.72723 -8.6441445,-0.025 -9.5447361,8.22058 -9.5447361,8.22058 0,0 -11.3991051,-19.89903 2.7509304,-25.38032 16.7825097,-6.50103 26.3715827,17.65535 26.3715827,17.65535 0,0 6.443314,11.39975 14.373571,17.34743 7.930249,5.94769 13.262032,8.57105 13.262032,8.57105" id="path4535-6-7-9-3" inkscape:connector-curvature="0" sodipodi:nodetypes="csssccssscssscscsc" inkscape:export-xdpi="96" inkscape:export-ydpi="96" class="ptZTyFma_0"></path>
  </g>
<style data-made-with="vivus-instant">.ptZTyFma_0{stroke-dasharray:445 447;stroke-dashoffset:446;animation:ptZTyFma_draw 2000ms linear 0ms forwards;}@keyframes ptZTyFma_draw{100%{stroke-dashoffset:0;}}@keyframes ptZTyFma_fade{0%{stroke-opacity:1;}94.44444444444444%{stroke-opacity:1;}100%{stroke-opacity:0;}}</style></svg>
