<!--?xml version="1.0" encoding="UTF-8" standalone="no"?-->
<svg xmlns:dc="http://purl.org/dc/elements/1.1/" xmlns:cc="http://creativecommons.org/ns#" xmlns:rdf="http://www.w3.org/1999/02/22-rdf-syntax-ns#" xmlns:svg="http://www.w3.org/2000/svg" xmlns="http://www.w3.org/2000/svg" id="svg87" version="1.1" viewBox="0 0 100 100" height="100mm" width="100mm" style="">
  <defs id="defs81"></defs>
  <metadata id="metadata84">
    <rdf:rdf>
      <cc:work rdf:about="">
        <dc:format>image/svg+xml</dc:format>
        <dc:type rdf:resource="http://purl.org/dc/dcmitype/StillImage"></dc:type>
        <dc:title></dc:title>
      </cc:work>
    </rdf:rdf>
  </metadata>
  <g transform="translate(0,-197)" id="layer1">
    <path id="path4535-6-7-9-3-7" d="m 38.999469,292.63937 c 0,0 4.773209,-2.22622 11.329522,-9.28684 6.556278,-7.06063 18.863568,-31.85364 30.380996,-34.29674 8.321438,-1.76517 16.788086,3.31005 17.118516,11.65028 0.35661,9.00132 -4.336022,14.83976 -4.336022,14.83976 0,0 -2.312747,-6.91694 -9.373387,-7.42126 -7.060618,-0.50433 -15.805618,1.90487 -21.058522,1.63751 -6.567154,-0.33424 -17.580583,-0.25502 -25.844183,-19.84307 -6.642782,-15.74612 1.857932,-26.11271 5.068656,-34.73765 2.582841,-6.93823 3.306564,-14.3048 3.306564,-14.3048 0,0 19.210302,17.98787 18.211628,38.38562 -0.842338,17.20484 -8.875114,25.17105 -20.693856,29.10424 -12.971929,4.31696 -20.009864,-0.88565 -26.822667,-0.56311 -8.7858831,0.41594 -9.7120691,8.36471 -9.7120691,8.36471 0,0 -11.5989587,-20.24791 2.799156,-25.8253 17.0767491,-6.61501 26.8339441,14.8539 26.8339441,14.8539 0,0 6.556278,11.59962 14.625575,17.65157 8.069285,6.05197 13.49454,8.72132 13.49454,8.72132" style="fill: none; stroke: rgb(0, 0, 0); stroke-width: 4.30506; stroke-linecap: square; stroke-linejoin: bevel; stroke-miterlimit: 4; stroke-opacity: 1;" class="oEItOGVc_0"></path>
  </g>
<style data-made-with="vivus-instant">.oEItOGVc_0{stroke-dasharray:447 449;stroke-dashoffset:448;animation:oEItOGVc_draw 2000ms ease-in-out 0ms forwards;}@keyframes oEItOGVc_draw{100%{stroke-dashoffset:0;}}@keyframes oEItOGVc_fade{0%{stroke-opacity:1;}93.54838709677419%{stroke-opacity:1;}100%{stroke-opacity:0;}}</style></svg>
