<!--?xml version="1.0" encoding="UTF-8" standalone="no"?-->
<svg xmlns:dc="http://purl.org/dc/elements/1.1/" xmlns:cc="http://creativecommons.org/ns#" xmlns:rdf="http://www.w3.org/1999/02/22-rdf-syntax-ns#" xmlns:svg="http://www.w3.org/2000/svg" xmlns="http://www.w3.org/2000/svg" id="svg4773" version="1.1" viewBox="0 0 100 100" height="100mm" width="100mm" style="">
  <defs id="defs4767"></defs>
  <metadata id="metadata4770">
    <rdf:rdf>
      <cc:work rdf:about="">
        <dc:format>image/svg+xml</dc:format>
        <dc:type rdf:resource="http://purl.org/dc/dcmitype/StillImage"></dc:type>
        <dc:title></dc:title>
      </cc:work>
    </rdf:rdf>
  </metadata>
  <g transform="translate(0,-197)" id="layer1">
    <path id="path4535-6" d="m 38.825519,290.8958 c 0,0 4.726867,-2.20459 11.219497,-9.19666 6.492627,-6.99206 20.936358,-34.00893 32.341952,-36.42831 8.240638,-1.74802 14.933102,3.2779 15.260312,11.53715 0.35315,8.91392 -4.857914,14.69563 -4.857914,14.69563 0,0 -2.290295,-6.28576 -9.282356,-6.78519 -6.992064,-0.49943 -10.841238,4.37371 -17.333867,3.87428 -6.492628,-0.49944 -20.930032,-0.60458 -29.113384,-20.00241 -6.578297,-15.5932 1.83988,-25.85912 5.019431,-34.40031 2.557761,-6.87087 3.274452,-14.16589 3.274452,-14.16589 0,0 19.023759,17.8132 18.034785,38.01287 -0.834164,17.03776 -9.796875,23.95356 -21.079606,28.93894 -10.737789,4.74463 -14.652645,-3.72315 -25.975506,-3.75577 -8.7102759,-0.0251 -9.6177567,8.28348 -9.6177567,8.28348 0,0 -11.4863239,-20.05128 2.7719718,-25.57451 16.9109229,-6.55077 26.5733709,17.79045 26.5733709,17.79045 0,0 6.492617,11.48697 14.483549,17.48016 7.99092,5.9932 13.363499,8.63663 13.363499,8.63663" style="fill: none; stroke: rgb(0, 0, 0); stroke-width: 4.67162; stroke-linecap: square; stroke-linejoin: bevel; stroke-miterlimit: 4; stroke-opacity: 1;" class="MrBZrSMp_0"></path>
  </g>
<style data-made-with="vivus-instant">.MrBZrSMp_0{stroke-dasharray:447 449;stroke-dashoffset:448;animation:MrBZrSMp_draw 2000ms linear 0ms forwards;}@keyframes MrBZrSMp_draw{100%{stroke-dashoffset:0;}}@keyframes MrBZrSMp_fade{0%{stroke-opacity:1;}94.44444444444444%{stroke-opacity:1;}100%{stroke-opacity:0;}}</style></svg>
